<svg xmlns="http://www.w3.org/2000/svg" viewBox="0 0 100 100"><g id="Layer_3" data-name="Layer 3"><path d="M37.23,48.78a25,25,0,0,1,1-7.11A20.58,20.58,0,0,1,41,35.75a14.1,14.1,0,0,1,4.1-4,9.22,9.22,0,0,1,10,0,14.1,14.1,0,0,1,4.1,4,20.57,20.57,0,0,1,2.75,5.92,24.68,24.68,0,0,1,1,7.11,23.76,23.76,0,0,1-1,7.06,19.17,19.17,0,0,1-2.75,5.69A13.55,13.55,0,0,1,55,65.34a9.74,9.74,0,0,1-10,0A13.55,13.55,0,0,1,41,61.53a19.19,19.19,0,0,1-2.76-5.69A24.09,24.09,0,0,1,37.23,48.78Zm4.33.36a18.41,18.41,0,0,0,.68,5.06,14.94,14.94,0,0,0,1.84,4.16,9.57,9.57,0,0,0,2.73,2.82,5.91,5.91,0,0,0,3.31,1,5.8,5.8,0,0,0,3.28-1,9.51,9.51,0,0,0,2.66-2.82,14.6,14.6,0,0,0,1.79-4.16,19.22,19.22,0,0,0,.65-5.06,20.43,20.43,0,0,0-.68-5.25A17.53,17.53,0,0,0,56,39.38a11.2,11.2,0,0,0-2.73-3.16A5.32,5.32,0,0,0,49.94,35a5.22,5.22,0,0,0-3.28,1.21A11,11,0,0,0,44,39.38a17.47,17.47,0,0,0-1.78,4.51A21.33,21.33,0,0,0,41.56,49.14Z"/></g></svg>