<?xml version="1.0" encoding="utf-8"?>
<!-- Generator: Adobe Illustrator 24.1.1, SVG Export Plug-In . SVG Version: 6.00 Build 0)  -->
<svg version="1.1" id="Layer_1" xmlns="http://www.w3.org/2000/svg" xmlns:xlink="http://www.w3.org/1999/xlink" x="0px" y="0px"
	 viewBox="0 0 75 75" style="enable-background:new 0 0 75 75;" xml:space="preserve">
<g>
	<path d="M19.9,20.25c0.12-0.74,0.42-1.25,0.92-1.54c0.5-0.29,1.01-0.41,1.55-0.37c0.54,0.04,1.01,0.25,1.44,0.62
		c0.42,0.37,0.63,0.82,0.63,1.35l0.11,33.78c0,0.78-0.22,1.32-0.66,1.63c-0.44,0.31-0.93,0.44-1.46,0.4
		c-0.54-0.04-1.02-0.22-1.46-0.52c-0.44-0.31-0.66-0.71-0.66-1.2L19.9,20.25z"/>
	<path d="M30.23,37.42c0-2.62,0.32-5.12,0.98-7.48c0.65-2.36,1.55-4.43,2.7-6.21s2.49-3.19,4.02-4.21c1.53-1.02,3.16-1.54,4.88-1.54
		c1.72,0,3.35,0.51,4.88,1.54c1.53,1.03,2.87,2.43,4.02,4.21c1.15,1.78,2.05,3.86,2.7,6.21c0.65,2.36,0.98,4.85,0.98,7.48
		c0,2.67-0.33,5.14-0.98,7.41c-0.65,2.28-1.55,4.27-2.7,5.97c-1.15,1.7-2.49,3.04-4.02,4c-1.53,0.96-3.16,1.45-4.88,1.45
		c-1.72,0-3.35-0.48-4.88-1.45c-1.53-0.96-2.87-2.3-4.02-4s-2.05-3.69-2.7-5.97C30.56,42.56,30.23,40.09,30.23,37.42z M34.48,37.79
		c0,1.89,0.22,3.66,0.66,5.32c0.44,1.66,1.04,3.12,1.81,4.37c0.77,1.25,1.65,2.24,2.67,2.95c1.01,0.72,2.1,1.08,3.24,1.08
		c1.15,0,2.22-0.36,3.21-1.08c0.99-0.72,1.87-1.7,2.61-2.95s1.33-2.71,1.75-4.37c0.42-1.66,0.63-3.43,0.63-5.32
		c0-1.89-0.22-3.72-0.66-5.51c-0.44-1.78-1.04-3.36-1.81-4.74c-0.77-1.37-1.66-2.48-2.67-3.32c-1.01-0.84-2.1-1.26-3.24-1.26
		c-1.15,0-2.22,0.42-3.21,1.26c-1,0.84-1.87,1.95-2.61,3.32c-0.75,1.37-1.33,2.95-1.75,4.74C34.69,34.07,34.48,35.9,34.48,37.79z"/>
</g>
</svg>
