<?xml version="1.0" encoding="utf-8"?>
<!-- Generator: Adobe Illustrator 24.1.1, SVG Export Plug-In . SVG Version: 6.00 Build 0)  -->
<svg version="1.1" id="Layer_1" xmlns="http://www.w3.org/2000/svg" xmlns:xlink="http://www.w3.org/1999/xlink" x="0px" y="0px"
	 viewBox="0 0 75 75" style="enable-background:new 0 0 75 75;" xml:space="preserve">
<g>
	<path d="M6.67,20.25c0.12-0.74,0.42-1.25,0.92-1.54c0.5-0.29,1.01-0.41,1.55-0.37c0.54,0.04,1.01,0.25,1.44,0.62
		c0.42,0.37,0.63,0.82,0.63,1.35l0.11,33.78c0,0.78-0.22,1.32-0.66,1.63c-0.44,0.31-0.93,0.44-1.46,0.4
		c-0.54-0.04-1.02-0.22-1.46-0.52c-0.44-0.31-0.66-0.71-0.66-1.2L6.67,20.25z"/>
	<path d="M17,37.42c0-2.62,0.32-5.12,0.98-7.48c0.65-2.36,1.55-4.43,2.7-6.21s2.49-3.19,4.02-4.21c1.53-1.02,3.16-1.54,4.88-1.54
		s3.35,0.51,4.88,1.54c1.53,1.03,2.87,2.43,4.02,4.21s2.05,3.86,2.7,6.21c0.65,2.36,0.98,4.85,0.98,7.48c0,2.67-0.33,5.14-0.98,7.41
		c-0.65,2.28-1.55,4.27-2.7,5.97s-2.49,3.04-4.02,4c-1.53,0.96-3.16,1.45-4.88,1.45s-3.35-0.48-4.88-1.45
		c-1.53-0.96-2.87-2.3-4.02-4s-2.05-3.69-2.7-5.97C17.33,42.56,17,40.09,17,37.42z M21.25,37.79c0,1.89,0.22,3.66,0.66,5.32
		c0.44,1.66,1.04,3.12,1.81,4.37c0.77,1.25,1.65,2.24,2.67,2.95c1.01,0.72,2.1,1.08,3.24,1.08c1.15,0,2.22-0.36,3.21-1.08
		c0.99-0.72,1.87-1.7,2.61-2.95c0.75-1.25,1.33-2.71,1.75-4.37c0.42-1.66,0.63-3.43,0.63-5.32c0-1.89-0.22-3.72-0.66-5.51
		c-0.44-1.78-1.04-3.36-1.81-4.74c-0.77-1.37-1.66-2.48-2.67-3.32c-1.01-0.84-2.1-1.26-3.24-1.26c-1.15,0-2.22,0.42-3.21,1.26
		c-1,0.84-1.87,1.95-2.61,3.32c-0.75,1.37-1.33,2.95-1.75,4.74C21.46,34.07,21.25,35.9,21.25,37.79z"/>
	<path d="M57.42,38.28c-0.34,0.04-0.66-0.14-0.95-0.55c-0.29-0.41-0.48-0.88-0.57-1.42c-0.1-0.53-0.05-1.04,0.14-1.51
		c0.19-0.47,0.57-0.75,1.15-0.83c0.57,0,1.25-0.11,2.04-0.34c0.78-0.23,1.53-0.6,2.24-1.14c0.71-0.53,1.28-1.23,1.72-2.09
		c0.44-0.86,0.6-1.95,0.49-3.26c-0.08-0.62-0.28-1.23-0.6-1.85c-0.33-0.62-0.78-1.16-1.35-1.63c-0.57-0.47-1.26-0.84-2.07-1.11
		c-0.8-0.27-1.68-0.36-2.64-0.28c-0.31,0.04-0.74,0.11-1.29,0.22c-0.55,0.1-1.14,0.34-1.75,0.71c-0.61,0.37-1.2,0.9-1.75,1.6
		c-0.56,0.7-0.97,1.64-1.23,2.83c-0.12,0.57-0.42,0.91-0.92,1.02c-0.5,0.1-1,0.06-1.49-0.12c-0.5-0.18-0.9-0.5-1.21-0.95
		c-0.31-0.45-0.34-0.98-0.11-1.6c0.46-1.6,1.08-2.91,1.87-3.94c0.78-1.02,1.64-1.85,2.55-2.46c0.92-0.62,1.84-1.06,2.76-1.32
		c0.92-0.27,1.74-0.42,2.47-0.46c1.22-0.08,2.46,0.05,3.7,0.4c1.24,0.35,2.38,0.9,3.42,1.66c1.03,0.76,1.89,1.72,2.58,2.89
		s1.11,2.55,1.26,4.15c0.19,2.09-0.03,3.86-0.66,5.29c-0.63,1.44-1.5,2.6-2.61,3.51c1.45,0.98,2.58,2.4,3.39,4.25
		s1.07,4.12,0.8,6.83c-0.19,2.09-0.69,3.86-1.49,5.29c-0.8,1.44-1.77,2.58-2.9,3.45c-1.13,0.86-2.35,1.47-3.67,1.82
		c-1.32,0.35-2.59,0.48-3.82,0.4c-0.73-0.04-1.55-0.2-2.47-0.46c-0.92-0.27-1.84-0.71-2.76-1.32c-0.92-0.62-1.77-1.44-2.55-2.46
		c-0.78-1.02-1.41-2.34-1.87-3.94c-0.23-0.62-0.19-1.15,0.11-1.6c0.31-0.45,0.71-0.77,1.21-0.95c0.5-0.19,1-0.22,1.49-0.09
		s0.8,0.45,0.92,0.98c0.27,1.19,0.68,2.13,1.23,2.83c0.55,0.7,1.14,1.23,1.75,1.6c0.61,0.37,1.2,0.61,1.75,0.71s0.99,0.17,1.29,0.21
		c0.96,0.08,1.88-0.02,2.76-0.31c0.88-0.29,1.65-0.74,2.32-1.35s1.22-1.35,1.67-2.21c0.44-0.86,0.72-1.8,0.83-2.83
		c0.12-1.31,0-2.48-0.34-3.51c-0.34-1.02-0.86-1.89-1.55-2.58c-0.69-0.7-1.49-1.23-2.41-1.6C59.37,38.46,58.41,38.28,57.42,38.28z"
		/>
</g>
</svg>
