<?xml version="1.0" encoding="utf-8"?>
<!-- Generator: Adobe Illustrator 24.1.1, SVG Export Plug-In . SVG Version: 6.00 Build 0)  -->
<svg version="1.1" id="Layer_1" xmlns="http://www.w3.org/2000/svg" xmlns:xlink="http://www.w3.org/1999/xlink" x="0px" y="0px"
	 viewBox="0 0 75 75" style="enable-background:new 0 0 75 75;" xml:space="preserve">
<g>
	<path d="M5.95,20.25c0.12-0.74,0.42-1.25,0.92-1.54c0.5-0.29,1.01-0.41,1.55-0.37c0.54,0.04,1.01,0.25,1.44,0.62
		c0.42,0.37,0.63,0.82,0.63,1.35l0.11,33.78c0,0.78-0.22,1.32-0.66,1.63c-0.44,0.31-0.93,0.44-1.46,0.4
		c-0.54-0.04-1.02-0.22-1.46-0.52c-0.44-0.31-0.66-0.71-0.66-1.2L5.95,20.25z"/>
	<path d="M16.28,37.42c0-2.62,0.32-5.12,0.98-7.48c0.65-2.36,1.55-4.43,2.7-6.21s2.49-3.19,4.02-4.21c1.53-1.02,3.16-1.54,4.88-1.54
		s3.35,0.51,4.88,1.54c1.53,1.03,2.87,2.43,4.02,4.21c1.15,1.78,2.05,3.86,2.7,6.21c0.65,2.36,0.98,4.85,0.98,7.48
		c0,2.67-0.33,5.14-0.98,7.41c-0.65,2.28-1.55,4.27-2.7,5.97c-1.15,1.7-2.49,3.04-4.02,4c-1.53,0.96-3.16,1.45-4.88,1.45
		s-3.35-0.48-4.88-1.45c-1.53-0.96-2.87-2.3-4.02-4s-2.05-3.69-2.7-5.97C16.61,42.56,16.28,40.09,16.28,37.42z M20.53,37.79
		c0,1.89,0.22,3.66,0.66,5.32c0.44,1.66,1.04,3.12,1.81,4.37c0.77,1.25,1.65,2.24,2.67,2.95c1.01,0.72,2.1,1.08,3.24,1.08
		c1.15,0,2.22-0.36,3.21-1.08c0.99-0.72,1.87-1.7,2.61-2.95c0.75-1.25,1.33-2.71,1.75-4.37c0.42-1.66,0.63-3.43,0.63-5.32
		c0-1.89-0.22-3.72-0.66-5.51c-0.44-1.78-1.04-3.36-1.81-4.74c-0.77-1.37-1.66-2.48-2.67-3.32c-1.01-0.84-2.1-1.26-3.24-1.26
		c-1.15,0-2.22,0.42-3.21,1.26c-1,0.84-1.87,1.95-2.61,3.32c-0.75,1.37-1.33,2.95-1.75,4.74C20.74,34.07,20.53,35.9,20.53,37.79z"/>
	<path d="M66.23,18.22c0.46,0.16,0.78,0.53,0.98,1.11c0.19,0.57,0.25,1.16,0.17,1.75c-0.08,0.6-0.3,1.09-0.66,1.48
		c-0.36,0.39-0.89,0.5-1.58,0.34c-1.65-0.25-3.1-0.22-4.36,0.09s-2.36,0.8-3.3,1.48c-0.94,0.68-1.72,1.48-2.35,2.4
		s-1.16,1.89-1.58,2.89c-0.42,1.01-0.76,1.98-1,2.92c-0.25,0.94-0.43,1.76-0.55,2.46c0.77-0.62,1.67-1.11,2.73-1.48
		c1.05-0.37,2.08-0.62,3.07-0.74c1.53-0.12,2.98,0.06,4.33,0.55c1.36,0.49,2.57,1.24,3.64,2.25c1.07,1.01,1.93,2.21,2.58,3.6
		c0.65,1.39,1.01,2.91,1.09,4.55c0.08,1.64-0.12,3.22-0.6,4.74c-0.48,1.52-1.19,2.88-2.12,4.09c-0.94,1.21-2.06,2.21-3.36,2.98
		s-2.72,1.25-4.25,1.42c-2.41,0.25-4.44-0.13-6.08-1.14c-1.65-1-2.96-2.42-3.93-4.25c-0.98-1.82-1.62-3.95-1.92-6.37
		c-0.31-2.42-0.31-4.94,0-7.57c0.15-1.19,0.36-2.56,0.63-4.12c0.27-1.56,0.69-3.13,1.26-4.71c0.57-1.58,1.31-3.11,2.21-4.58
		c0.9-1.48,2.04-2.74,3.42-3.78s3-1.8,4.88-2.28C61.44,17.84,63.66,17.81,66.23,18.22z M51.36,45.66c0.08,0.98,0.34,1.93,0.8,2.83
		c0.46,0.9,1.03,1.67,1.72,2.31c0.69,0.64,1.46,1.13,2.33,1.48s1.75,0.46,2.67,0.34c0.92-0.08,1.78-0.36,2.58-0.83
		s1.5-1.08,2.09-1.82c0.59-0.74,1.04-1.58,1.35-2.52c0.31-0.94,0.44-1.91,0.4-2.89c-0.08-0.98-0.32-1.9-0.72-2.74
		c-0.4-0.84-0.94-1.57-1.61-2.18s-1.43-1.09-2.3-1.42c-0.86-0.33-1.75-0.45-2.67-0.37c-0.92,0.12-1.8,0.37-2.64,0.74
		c-0.84,0.37-1.58,0.88-2.21,1.54c-0.63,0.66-1.12,1.45-1.46,2.37C51.36,43.42,51.24,44.47,51.36,45.66z"/>
</g>
</svg>
