<?xml version="1.0" encoding="utf-8"?>
<!-- Generator: Adobe Illustrator 24.1.1, SVG Export Plug-In . SVG Version: 6.00 Build 0)  -->
<svg version="1.1" id="Layer_1" xmlns="http://www.w3.org/2000/svg" xmlns:xlink="http://www.w3.org/1999/xlink" x="0px" y="0px"
	 viewBox="0 0 75 75" style="enable-background:new 0 0 75 75;" xml:space="preserve">
<g>
	<path d="M7.18,20.25C7.3,19.52,7.61,19,8.1,18.72c0.5-0.29,1.01-0.41,1.55-0.37c0.54,0.04,1.01,0.25,1.44,0.62
		c0.42,0.37,0.63,0.82,0.63,1.35l0.11,33.78c0,0.78-0.22,1.32-0.66,1.63c-0.44,0.31-0.93,0.44-1.46,0.4
		c-0.54-0.04-1.02-0.22-1.46-0.52c-0.44-0.31-0.66-0.71-0.66-1.2L7.18,20.25z"/>
	<path d="M17.52,37.42c0-2.62,0.32-5.12,0.98-7.48c0.65-2.36,1.55-4.43,2.7-6.21s2.49-3.19,4.02-4.21c1.53-1.02,3.16-1.54,4.88-1.54
		s3.35,0.51,4.88,1.54c1.53,1.03,2.87,2.43,4.02,4.21c1.15,1.78,2.05,3.86,2.7,6.21c0.65,2.36,0.98,4.85,0.98,7.48
		c0,2.67-0.33,5.14-0.98,7.41c-0.65,2.28-1.55,4.27-2.7,5.97c-1.15,1.7-2.49,3.04-4.02,4c-1.53,0.96-3.16,1.45-4.88,1.45
		s-3.35-0.48-4.88-1.45c-1.53-0.96-2.87-2.3-4.02-4s-2.05-3.69-2.7-5.97C17.84,42.56,17.52,40.09,17.52,37.42z M21.77,37.79
		c0,1.89,0.22,3.66,0.66,5.32c0.44,1.66,1.04,3.12,1.81,4.37c0.77,1.25,1.65,2.24,2.67,2.95c1.01,0.72,2.1,1.08,3.24,1.08
		c1.15,0,2.22-0.36,3.21-1.08c0.99-0.72,1.87-1.7,2.61-2.95c0.75-1.25,1.33-2.71,1.75-4.37c0.42-1.66,0.63-3.43,0.63-5.32
		c0-1.89-0.22-3.72-0.66-5.51c-0.44-1.78-1.04-3.36-1.81-4.74c-0.77-1.37-1.66-2.48-2.67-3.32c-1.01-0.84-2.1-1.26-3.24-1.26
		c-1.15,0-2.22,0.42-3.21,1.26c-1,0.84-1.87,1.95-2.61,3.32c-0.75,1.37-1.33,2.95-1.75,4.74C21.98,34.07,21.77,35.9,21.77,37.79z"/>
	<path d="M63.61,20.13c0-0.49,0.22-0.89,0.66-1.2c0.44-0.31,0.93-0.48,1.46-0.52c0.54-0.04,1.02,0.09,1.46,0.4
		c0.44,0.31,0.66,0.85,0.66,1.63l0.06,34.21c-0.12,0.86-0.41,1.46-0.89,1.78c-0.48,0.33-0.98,0.46-1.49,0.4
		c-0.52-0.06-0.99-0.31-1.41-0.74c-0.42-0.43-0.65-0.97-0.69-1.63c0-1.52,0-2.83,0-3.94s-0.01-2.31-0.03-3.6
		c-0.02-1.29-0.03-2.49-0.03-3.6s-0.01-2.03-0.03-2.77c-0.02-0.74-0.03-1.13-0.03-1.17c-0.8,0.62-1.68,1.1-2.64,1.45
		c-0.96,0.35-1.95,0.52-2.99,0.52c-1.38,0-2.68-0.31-3.9-0.92s-2.3-1.44-3.21-2.46c-0.92-1.02-1.64-2.22-2.15-3.6
		c-0.52-1.37-0.78-2.8-0.78-4.28s0.26-2.89,0.78-4.25s1.23-2.54,2.15-3.57c0.92-1.02,1.99-1.83,3.21-2.43
		c1.22-0.59,2.53-0.89,3.9-0.89c1.11,0,2.15,0.18,3.13,0.55s1.88,0.9,2.73,1.6L63.61,20.13z M51.85,30.04
		c0,0.86,0.15,1.69,0.46,2.49c0.31,0.8,0.73,1.5,1.26,2.09c0.54,0.6,1.15,1.08,1.84,1.45s1.44,0.55,2.24,0.55s1.56-0.17,2.27-0.52
		c0.71-0.35,1.33-0.81,1.87-1.38c0.54-0.57,0.96-1.25,1.26-2.03c0.31-0.78,0.44-1.6,0.4-2.46c-0.08-2.21-0.66-3.88-1.75-4.98
		s-2.44-1.66-4.05-1.66c-0.8,0-1.55,0.17-2.24,0.52c-0.69,0.35-1.3,0.82-1.84,1.42c-0.54,0.6-0.96,1.28-1.26,2.06
		C52,28.35,51.85,29.17,51.85,30.04z"/>
</g>
</svg>
