<?xml version="1.0" encoding="utf-8"?>
<!-- Generator: Adobe Illustrator 24.1.1, SVG Export Plug-In . SVG Version: 6.00 Build 0)  -->
<svg version="1.1" id="Layer_1" xmlns="http://www.w3.org/2000/svg" xmlns:xlink="http://www.w3.org/1999/xlink" x="0px" y="0px"
	 viewBox="0 0 75 75" style="enable-background:new 0 0 75 75;" xml:space="preserve">
<g>
	<path d="M14.33,56.18c-0.69,0-1.21-0.21-1.55-0.62c-0.34-0.41-0.56-0.87-0.63-1.38c-0.08-0.51-0.03-1.01,0.14-1.51
		s0.45-0.82,0.83-0.98c1.87-1.97,3.69-3.98,5.45-6.03c1.76-2.05,3.32-4.09,4.68-6.12c1.36-2.03,2.44-4.03,3.24-6s1.19-3.83,1.15-5.6
		c-0.04-1.56-0.46-2.81-1.26-3.75c-0.8-0.94-1.8-1.52-2.99-1.72c-0.77-0.12-1.54-0.11-2.32,0.03c-0.79,0.14-1.53,0.44-2.24,0.89
		c-0.71,0.45-1.33,1.05-1.87,1.78c-0.54,0.74-0.92,1.62-1.15,2.65c-0.11,0.57-0.42,0.9-0.92,0.98c-0.5,0.08-1,0.02-1.49-0.18
		c-0.5-0.2-0.9-0.54-1.21-1.02c-0.31-0.47-0.34-1.02-0.11-1.63c0.54-1.6,1.28-2.96,2.24-4.09c0.96-1.13,2.01-2.02,3.16-2.68
		c1.15-0.66,2.36-1.09,3.65-1.29c1.28-0.2,2.52-0.18,3.7,0.06c1,0.21,1.95,0.58,2.87,1.14s1.72,1.26,2.41,2.12
		c0.69,0.86,1.21,1.89,1.58,3.08c0.36,1.19,0.51,2.5,0.43,3.94c-0.11,2.13-0.54,4.25-1.26,6.34c-0.73,2.09-1.66,4.13-2.78,6.12
		c-1.13,1.99-2.38,3.9-3.76,5.72c-1.38,1.83-2.79,3.56-4.25,5.2h10.96c0.69,0.12,1.16,0.45,1.41,0.98c0.25,0.53,0.32,1.07,0.23,1.6
		c-0.1,0.53-0.34,1.01-0.72,1.42c-0.38,0.41-0.84,0.55-1.38,0.43L14.33,56.18z"/>
	<path d="M37.64,37.42c0-2.62,0.32-5.12,0.98-7.48c0.65-2.36,1.55-4.43,2.7-6.21c1.15-1.78,2.49-3.19,4.02-4.21
		c1.53-1.02,3.16-1.54,4.88-1.54c1.72,0,3.35,0.51,4.88,1.54c1.53,1.03,2.87,2.43,4.02,4.21c1.15,1.78,2.05,3.86,2.7,6.21
		c0.65,2.36,0.98,4.85,0.98,7.48c0,2.67-0.33,5.14-0.98,7.41c-0.65,2.28-1.55,4.27-2.7,5.97c-1.15,1.7-2.49,3.04-4.02,4
		c-1.53,0.96-3.16,1.45-4.88,1.45c-1.72,0-3.35-0.48-4.88-1.45c-1.53-0.96-2.87-2.3-4.02-4c-1.15-1.7-2.05-3.69-2.7-5.97
		C37.96,42.56,37.64,40.09,37.64,37.42z M41.89,37.79c0,1.89,0.22,3.66,0.66,5.32c0.44,1.66,1.04,3.12,1.81,4.37
		s1.66,2.24,2.67,2.95s2.1,1.08,3.24,1.08c1.15,0,2.22-0.36,3.21-1.08c0.99-0.72,1.87-1.7,2.61-2.95s1.33-2.71,1.75-4.37
		c0.42-1.66,0.63-3.43,0.63-5.32c0-1.89-0.22-3.72-0.66-5.51c-0.44-1.78-1.04-3.36-1.81-4.74c-0.77-1.37-1.66-2.48-2.67-3.32
		c-1.01-0.84-2.1-1.26-3.24-1.26c-1.15,0-2.22,0.42-3.21,1.26c-1,0.84-1.87,1.95-2.61,3.32c-0.75,1.37-1.33,2.95-1.75,4.74
		C42.1,34.07,41.89,35.9,41.89,37.79z"/>
</g>
</svg>
