<?xml version="1.0" encoding="utf-8"?>
<!-- Generator: Adobe Illustrator 24.1.1, SVG Export Plug-In . SVG Version: 6.00 Build 0)  -->
<svg version="1.1" id="Layer_1" xmlns="http://www.w3.org/2000/svg" xmlns:xlink="http://www.w3.org/1999/xlink" x="0px" y="0px"
	 viewBox="0 0 75 75" style="enable-background:new 0 0 75 75;" xml:space="preserve">
<g>
	<path d="M16.43,56.18c-0.69,0-1.21-0.21-1.55-0.62c-0.34-0.41-0.56-0.87-0.63-1.38c-0.08-0.51-0.03-1.01,0.14-1.51
		s0.45-0.82,0.83-0.98c1.87-1.97,3.69-3.98,5.45-6.03c1.76-2.05,3.32-4.09,4.68-6.12c1.36-2.03,2.44-4.03,3.24-6s1.19-3.83,1.15-5.6
		c-0.04-1.56-0.46-2.81-1.26-3.75c-0.8-0.94-1.8-1.52-2.99-1.72c-0.77-0.12-1.54-0.11-2.32,0.03c-0.79,0.14-1.53,0.44-2.24,0.89
		c-0.71,0.45-1.33,1.05-1.87,1.78c-0.54,0.74-0.92,1.62-1.15,2.65c-0.11,0.57-0.42,0.9-0.92,0.98c-0.5,0.08-1,0.02-1.49-0.18
		c-0.5-0.2-0.9-0.54-1.21-1.02c-0.31-0.47-0.34-1.02-0.11-1.63c0.54-1.6,1.28-2.96,2.24-4.09c0.96-1.13,2.01-2.02,3.16-2.68
		c1.15-0.66,2.36-1.09,3.65-1.29c1.28-0.2,2.52-0.18,3.7,0.06c1,0.21,1.95,0.58,2.87,1.14s1.72,1.26,2.41,2.12
		c0.69,0.86,1.21,1.89,1.58,3.08c0.36,1.19,0.51,2.5,0.43,3.94c-0.11,2.13-0.54,4.25-1.26,6.34c-0.73,2.09-1.66,4.13-2.78,6.12
		c-1.13,1.99-2.38,3.9-3.76,5.72c-1.38,1.83-2.79,3.56-4.25,5.2h10.96c0.69,0.12,1.16,0.45,1.41,0.98c0.25,0.53,0.32,1.07,0.23,1.6
		c-0.1,0.53-0.34,1.01-0.72,1.42c-0.38,0.41-0.84,0.55-1.38,0.43L16.43,56.18z"/>
	<path d="M49.49,38.28c-0.34,0.04-0.66-0.14-0.95-0.55c-0.29-0.41-0.48-0.88-0.57-1.42c-0.1-0.53-0.05-1.04,0.14-1.51
		c0.19-0.47,0.57-0.75,1.15-0.83c0.57,0,1.25-0.11,2.04-0.34c0.78-0.23,1.53-0.6,2.24-1.14c0.71-0.53,1.28-1.23,1.72-2.09
		c0.44-0.86,0.6-1.95,0.49-3.26c-0.08-0.62-0.28-1.23-0.6-1.85c-0.33-0.62-0.78-1.16-1.35-1.63c-0.57-0.47-1.26-0.84-2.07-1.11
		c-0.8-0.27-1.68-0.36-2.64-0.28c-0.31,0.04-0.74,0.11-1.29,0.22c-0.55,0.1-1.14,0.34-1.75,0.71c-0.61,0.37-1.2,0.9-1.75,1.6
		c-0.55,0.7-0.97,1.64-1.23,2.83c-0.12,0.57-0.42,0.91-0.92,1.02c-0.5,0.1-1,0.06-1.49-0.12c-0.5-0.18-0.9-0.5-1.21-0.95
		c-0.31-0.45-0.34-0.98-0.11-1.6c0.46-1.6,1.08-2.91,1.87-3.94c0.78-1.02,1.64-1.85,2.55-2.46s1.84-1.06,2.76-1.32
		c0.92-0.27,1.74-0.42,2.47-0.46c1.22-0.08,2.46,0.05,3.7,0.4c1.24,0.35,2.38,0.9,3.42,1.66c1.03,0.76,1.89,1.72,2.58,2.89
		c0.69,1.17,1.11,2.55,1.26,4.15c0.19,2.09-0.03,3.86-0.66,5.29c-0.63,1.44-1.5,2.6-2.61,3.51c1.45,0.98,2.58,2.4,3.39,4.25
		c0.8,1.85,1.07,4.12,0.8,6.83c-0.19,2.09-0.69,3.86-1.49,5.29c-0.8,1.44-1.77,2.58-2.9,3.45s-2.35,1.47-3.67,1.82
		c-1.32,0.35-2.59,0.48-3.82,0.4c-0.73-0.04-1.55-0.2-2.47-0.46c-0.92-0.27-1.84-0.71-2.76-1.32s-1.77-1.44-2.55-2.46
		c-0.79-1.02-1.41-2.34-1.87-3.94c-0.23-0.62-0.19-1.15,0.11-1.6c0.31-0.45,0.71-0.77,1.21-0.95c0.5-0.19,0.99-0.22,1.49-0.09
		c0.5,0.12,0.8,0.45,0.92,0.98c0.27,1.19,0.68,2.13,1.23,2.83c0.55,0.7,1.14,1.23,1.75,1.6c0.61,0.37,1.2,0.61,1.75,0.71
		s0.98,0.17,1.29,0.21c0.96,0.08,1.88-0.02,2.76-0.31c0.88-0.29,1.65-0.74,2.32-1.35s1.22-1.35,1.67-2.21
		c0.44-0.86,0.72-1.8,0.83-2.83c0.12-1.31,0-2.48-0.34-3.51c-0.35-1.02-0.86-1.89-1.55-2.58c-0.69-0.7-1.49-1.23-2.41-1.6
		C51.44,38.46,50.49,38.28,49.49,38.28z"/>
</g>
</svg>
