<?xml version="1.0" encoding="utf-8"?>
<!-- Generator: Adobe Illustrator 24.1.1, SVG Export Plug-In . SVG Version: 6.00 Build 0)  -->
<svg version="1.1" id="Layer_1" xmlns="http://www.w3.org/2000/svg" xmlns:xlink="http://www.w3.org/1999/xlink" x="0px" y="0px"
	 viewBox="0 0 75 75" style="enable-background:new 0 0 75 75;" xml:space="preserve">
<g>
	<path d="M15.97,56.18c-0.69,0-1.21-0.21-1.55-0.62c-0.34-0.41-0.56-0.87-0.63-1.38c-0.08-0.51-0.03-1.01,0.14-1.51
		s0.45-0.82,0.83-0.98c1.87-1.97,3.69-3.98,5.45-6.03c1.76-2.05,3.32-4.09,4.68-6.12c1.36-2.03,2.44-4.03,3.24-6s1.19-3.83,1.15-5.6
		c-0.04-1.56-0.46-2.81-1.26-3.75c-0.8-0.94-1.8-1.52-2.99-1.72c-0.77-0.12-1.54-0.11-2.32,0.03c-0.79,0.14-1.53,0.44-2.24,0.89
		c-0.71,0.45-1.33,1.05-1.87,1.78c-0.54,0.74-0.92,1.62-1.15,2.65c-0.11,0.57-0.42,0.9-0.92,0.98c-0.5,0.08-1,0.02-1.49-0.18
		c-0.5-0.2-0.9-0.54-1.21-1.02c-0.31-0.47-0.34-1.02-0.11-1.63c0.54-1.6,1.28-2.96,2.24-4.09c0.96-1.13,2.01-2.02,3.16-2.68
		c1.15-0.66,2.36-1.09,3.65-1.29c1.28-0.2,2.52-0.18,3.7,0.06c1,0.21,1.95,0.58,2.87,1.14s1.72,1.26,2.41,2.12
		c0.69,0.86,1.21,1.89,1.58,3.08c0.36,1.19,0.51,2.5,0.43,3.94c-0.11,2.13-0.54,4.25-1.26,6.34c-0.73,2.09-1.66,4.13-2.78,6.12
		c-1.13,1.99-2.38,3.9-3.76,5.72c-1.38,1.83-2.79,3.56-4.25,5.2h10.96c0.69,0.12,1.16,0.45,1.41,0.98c0.25,0.53,0.32,1.07,0.23,1.6
		c-0.1,0.53-0.34,1.01-0.72,1.42c-0.38,0.41-0.84,0.55-1.38,0.43L15.97,56.18z"/>
	<path d="M58.22,17.79c1.49-0.04,2.52,0.37,3.07,1.23s0.49,2.15-0.2,3.88l-12.8,32.05c-0.23,0.74-0.6,1.18-1.12,1.32
		c-0.52,0.14-1.03,0.11-1.52-0.09c-0.5-0.21-0.91-0.53-1.23-0.98c-0.33-0.45-0.41-0.9-0.26-1.35l12.29-31.32H40.77
		c-0.73,0-1.23-0.23-1.49-0.68c-0.27-0.45-0.38-0.95-0.34-1.51c0.04-0.55,0.2-1.07,0.49-1.54c0.29-0.47,0.66-0.71,1.12-0.71
		L58.22,17.79z"/>
</g>
</svg>
