<?xml version="1.0" encoding="utf-8"?>
<!-- Generator: Adobe Illustrator 24.1.1, SVG Export Plug-In . SVG Version: 6.00 Build 0)  -->
<svg version="1.1" id="Layer_1" xmlns="http://www.w3.org/2000/svg" xmlns:xlink="http://www.w3.org/1999/xlink" x="0px" y="0px"
	 viewBox="0 0 75 75" style="enable-background:new 0 0 75 75;" xml:space="preserve">
<g>
	<path d="M24.12,38.28c-0.34,0.04-0.66-0.14-0.95-0.55c-0.29-0.41-0.48-0.88-0.57-1.42c-0.1-0.53-0.05-1.04,0.14-1.51
		c0.19-0.47,0.57-0.75,1.15-0.83c0.57,0,1.25-0.11,2.04-0.34c0.78-0.23,1.53-0.6,2.24-1.14c0.71-0.53,1.28-1.23,1.72-2.09
		c0.44-0.86,0.6-1.95,0.49-3.26c-0.08-0.62-0.28-1.23-0.6-1.85c-0.33-0.62-0.77-1.16-1.35-1.63c-0.57-0.47-1.26-0.84-2.07-1.11
		c-0.8-0.27-1.68-0.36-2.64-0.28c-0.31,0.04-0.74,0.11-1.29,0.22c-0.56,0.1-1.14,0.34-1.75,0.71c-0.61,0.37-1.2,0.9-1.75,1.6
		c-0.56,0.7-0.97,1.64-1.23,2.83c-0.11,0.57-0.42,0.91-0.92,1.02c-0.5,0.1-1,0.06-1.49-0.12c-0.5-0.18-0.9-0.5-1.21-0.95
		c-0.31-0.45-0.34-0.98-0.11-1.6c0.46-1.6,1.08-2.91,1.87-3.94c0.78-1.02,1.64-1.85,2.55-2.46c0.92-0.62,1.84-1.06,2.76-1.32
		c0.92-0.27,1.74-0.42,2.47-0.46c1.22-0.08,2.46,0.05,3.7,0.4c1.24,0.35,2.38,0.9,3.42,1.66c1.03,0.76,1.89,1.72,2.58,2.89
		s1.11,2.55,1.26,4.15c0.19,2.09-0.03,3.86-0.66,5.29c-0.63,1.44-1.5,2.6-2.61,3.51c1.45,0.98,2.58,2.4,3.39,4.25
		s1.07,4.12,0.8,6.83c-0.19,2.09-0.69,3.86-1.49,5.29c-0.8,1.44-1.77,2.58-2.9,3.45c-1.13,0.86-2.35,1.47-3.67,1.82
		c-1.32,0.35-2.59,0.48-3.82,0.4c-0.73-0.04-1.55-0.2-2.47-0.46s-1.84-0.71-2.76-1.32c-0.92-0.62-1.77-1.44-2.55-2.46
		c-0.79-1.02-1.41-2.34-1.87-3.94c-0.23-0.62-0.19-1.15,0.11-1.6c0.31-0.45,0.71-0.77,1.21-0.95c0.5-0.19,0.99-0.22,1.49-0.09
		c0.5,0.12,0.8,0.45,0.92,0.98c0.27,1.19,0.68,2.13,1.23,2.83c0.55,0.7,1.14,1.23,1.75,1.6c0.61,0.37,1.2,0.61,1.75,0.71
		c0.55,0.1,0.98,0.17,1.29,0.21c0.96,0.08,1.87-0.02,2.76-0.31c0.88-0.29,1.66-0.74,2.33-1.35c0.67-0.62,1.22-1.35,1.66-2.21
		c0.44-0.86,0.72-1.8,0.83-2.83c0.11-1.31,0-2.48-0.34-3.51c-0.34-1.02-0.86-1.89-1.55-2.58c-0.69-0.7-1.49-1.23-2.41-1.6
		C26.07,38.46,25.11,38.28,24.12,38.28z"/>
	<path d="M56.27,20.13c0-0.49,0.22-0.89,0.66-1.2s0.93-0.48,1.46-0.52c0.54-0.04,1.02,0.09,1.46,0.4s0.66,0.85,0.66,1.63l0.06,34.21
		c-0.12,0.86-0.41,1.46-0.89,1.78c-0.48,0.33-0.98,0.46-1.49,0.4c-0.52-0.06-0.99-0.31-1.41-0.74c-0.42-0.43-0.65-0.97-0.69-1.63
		c0-1.52,0-2.83,0-3.94s-0.01-2.31-0.03-3.6c-0.02-1.29-0.03-2.49-0.03-3.6s-0.01-2.03-0.03-2.77s-0.03-1.13-0.03-1.17
		c-0.8,0.62-1.68,1.1-2.64,1.45s-1.95,0.52-2.98,0.52c-1.38,0-2.68-0.31-3.9-0.92s-2.29-1.44-3.21-2.46
		c-0.92-1.02-1.63-2.22-2.15-3.6c-0.52-1.37-0.78-2.8-0.78-4.28s0.26-2.89,0.78-4.25c0.52-1.35,1.23-2.54,2.15-3.57
		c0.92-1.02,1.99-1.83,3.21-2.43c1.22-0.59,2.53-0.89,3.9-0.89c1.11,0,2.15,0.18,3.13,0.55c0.97,0.37,1.88,0.9,2.73,1.6L56.27,20.13
		z M44.5,30.04c0,0.86,0.15,1.69,0.46,2.49s0.73,1.5,1.26,2.09c0.54,0.6,1.15,1.08,1.84,1.45c0.69,0.37,1.44,0.55,2.24,0.55
		c0.8,0,1.56-0.17,2.27-0.52c0.71-0.35,1.33-0.81,1.87-1.38c0.54-0.57,0.96-1.25,1.26-2.03c0.31-0.78,0.44-1.6,0.4-2.46
		c-0.08-2.21-0.66-3.88-1.75-4.98c-1.09-1.11-2.44-1.66-4.05-1.66c-0.8,0-1.55,0.17-2.24,0.52c-0.69,0.35-1.3,0.82-1.84,1.42
		c-0.54,0.6-0.96,1.28-1.26,2.06C44.65,28.35,44.5,29.17,44.5,30.04z"/>
</g>
</svg>
