<?xml version="1.0" encoding="utf-8"?>
<!-- Generator: Adobe Illustrator 24.1.1, SVG Export Plug-In . SVG Version: 6.00 Build 0)  -->
<svg version="1.1" id="Layer_1" xmlns="http://www.w3.org/2000/svg" xmlns:xlink="http://www.w3.org/1999/xlink" x="0px" y="0px"
	 viewBox="0 0 75 75" style="enable-background:new 0 0 75 75;" xml:space="preserve">
<g>
	<path d="M27.54,38.96H16.74c-1.34,0-2.43-0.21-3.27-0.65c-0.84-0.43-1.26-1.34-1.26-2.74l-0.17-15.32
		c0.11-0.74,0.44-1.23,0.98-1.48c0.54-0.25,1.08-0.32,1.64-0.22c0.55,0.1,1.04,0.35,1.46,0.74c0.42,0.39,0.57,0.83,0.46,1.32
		l-0.06,13.54h11.02l-0.11-13.9c0.11-0.74,0.44-1.24,0.98-1.51c0.54-0.27,1.07-0.36,1.61-0.28c0.54,0.08,1.01,0.31,1.44,0.68
		c0.42,0.37,0.57,0.8,0.46,1.29l0.11,33.65c0,0.78-0.22,1.32-0.66,1.63c-0.44,0.31-0.94,0.44-1.49,0.4
		c-0.56-0.04-1.05-0.22-1.49-0.52c-0.44-0.31-0.66-0.71-0.66-1.2L27.54,38.96z"/>
	<path d="M37.64,37.42c0-2.62,0.32-5.12,0.98-7.48c0.65-2.36,1.55-4.43,2.7-6.21c1.15-1.78,2.49-3.19,4.02-4.21
		c1.53-1.02,3.16-1.54,4.88-1.54c1.72,0,3.35,0.51,4.88,1.54c1.53,1.03,2.87,2.43,4.02,4.21c1.15,1.78,2.05,3.86,2.7,6.21
		c0.65,2.36,0.98,4.85,0.98,7.48c0,2.67-0.33,5.14-0.98,7.41c-0.65,2.28-1.55,4.27-2.7,5.97c-1.15,1.7-2.49,3.04-4.02,4
		c-1.53,0.96-3.16,1.45-4.88,1.45c-1.72,0-3.35-0.48-4.88-1.45c-1.53-0.96-2.87-2.3-4.02-4c-1.15-1.7-2.05-3.69-2.7-5.97
		C37.96,42.56,37.64,40.09,37.64,37.42z M41.89,37.79c0,1.89,0.22,3.66,0.66,5.32c0.44,1.66,1.04,3.12,1.81,4.37
		s1.66,2.24,2.67,2.95s2.1,1.08,3.24,1.08c1.15,0,2.22-0.36,3.21-1.08c0.99-0.72,1.87-1.7,2.61-2.95s1.33-2.71,1.75-4.37
		c0.42-1.66,0.63-3.43,0.63-5.32c0-1.89-0.22-3.72-0.66-5.51c-0.44-1.78-1.04-3.36-1.81-4.74c-0.77-1.37-1.66-2.48-2.67-3.32
		c-1.01-0.84-2.1-1.26-3.24-1.26c-1.15,0-2.22,0.42-3.21,1.26c-1,0.84-1.87,1.95-2.61,3.32c-0.75,1.37-1.33,2.95-1.75,4.74
		C42.1,34.07,41.89,35.9,41.89,37.79z"/>
</g>
</svg>
