<?xml version="1.0" encoding="utf-8"?>
<!-- Generator: Adobe Illustrator 24.1.1, SVG Export Plug-In . SVG Version: 6.00 Build 0)  -->
<svg version="1.1" id="Layer_1" xmlns="http://www.w3.org/2000/svg" xmlns:xlink="http://www.w3.org/1999/xlink" x="0px" y="0px"
	 viewBox="0 0 75 75" style="enable-background:new 0 0 75 75;" xml:space="preserve">
<g>
	<path d="M30.2,38.96H19.41c-1.34,0-2.43-0.21-3.27-0.65c-0.84-0.43-1.26-1.34-1.26-2.74l-0.17-15.32c0.11-0.74,0.44-1.23,0.98-1.48
		c0.54-0.25,1.08-0.32,1.64-0.22c0.55,0.1,1.04,0.35,1.46,0.74c0.42,0.39,0.57,0.83,0.46,1.32l-0.06,13.54H30.2l-0.11-13.9
		c0.11-0.74,0.44-1.24,0.98-1.51c0.54-0.27,1.07-0.36,1.61-0.28c0.54,0.08,1.01,0.31,1.44,0.68c0.42,0.37,0.57,0.8,0.46,1.29
		l0.11,33.65c0,0.78-0.22,1.32-0.66,1.63c-0.44,0.31-0.94,0.44-1.49,0.4c-0.56-0.04-1.05-0.22-1.49-0.52
		c-0.44-0.31-0.66-0.71-0.66-1.2L30.2,38.96z"/>
	<path d="M55.52,38.96H44.73c-1.34,0-2.43-0.21-3.27-0.65c-0.84-0.43-1.26-1.34-1.26-2.74l-0.17-15.32
		c0.12-0.74,0.44-1.23,0.98-1.48s1.08-0.32,1.64-0.22c0.55,0.1,1.04,0.35,1.46,0.74c0.42,0.39,0.57,0.83,0.46,1.32L44.5,34.16h11.02
		l-0.12-13.9c0.12-0.74,0.44-1.24,0.98-1.51c0.54-0.27,1.07-0.36,1.61-0.28c0.54,0.08,1.01,0.31,1.44,0.68
		c0.42,0.37,0.57,0.8,0.46,1.29L60,54.09c0,0.78-0.22,1.32-0.66,1.63c-0.44,0.31-0.94,0.44-1.49,0.4c-0.56-0.04-1.05-0.22-1.49-0.52
		c-0.44-0.31-0.66-0.71-0.66-1.2L55.52,38.96z"/>
</g>
</svg>
