<?xml version="1.0" encoding="utf-8"?>
<!-- Generator: Adobe Illustrator 24.1.1, SVG Export Plug-In . SVG Version: 6.00 Build 0)  -->
<svg version="1.1" id="Layer_1" xmlns="http://www.w3.org/2000/svg" xmlns:xlink="http://www.w3.org/1999/xlink" x="0px" y="0px"
	 viewBox="0 0 75 75" style="enable-background:new 0 0 75 75;" xml:space="preserve">
<g>
	<path d="M29.17,38.96H18.38c-1.34,0-2.43-0.21-3.27-0.65c-0.84-0.43-1.26-1.34-1.26-2.74l-0.17-15.32
		c0.11-0.74,0.44-1.23,0.98-1.48c0.54-0.25,1.08-0.32,1.64-0.22c0.55,0.1,1.04,0.35,1.46,0.74c0.42,0.39,0.57,0.83,0.46,1.32
		l-0.06,13.54h11.02l-0.11-13.9c0.11-0.74,0.44-1.24,0.98-1.51c0.54-0.27,1.07-0.36,1.61-0.28c0.54,0.08,1.01,0.31,1.44,0.68
		c0.42,0.37,0.57,0.8,0.46,1.29l0.11,33.65c0,0.78-0.22,1.32-0.66,1.63c-0.44,0.31-0.94,0.44-1.49,0.4
		c-0.56-0.04-1.05-0.22-1.49-0.52c-0.44-0.31-0.66-0.71-0.66-1.2L29.17,38.96z"/>
	<path d="M58.22,17.79c1.49-0.04,2.52,0.37,3.07,1.23s0.49,2.15-0.2,3.88l-12.8,32.05c-0.23,0.74-0.6,1.18-1.12,1.32
		c-0.52,0.14-1.03,0.11-1.52-0.09c-0.5-0.21-0.91-0.53-1.23-0.98c-0.33-0.45-0.41-0.9-0.26-1.35l12.29-31.32H40.77
		c-0.73,0-1.23-0.23-1.49-0.68c-0.27-0.45-0.38-0.95-0.34-1.51c0.04-0.55,0.2-1.07,0.49-1.54c0.29-0.47,0.66-0.71,1.12-0.71
		L58.22,17.79z"/>
</g>
</svg>
