<?xml version="1.0" encoding="utf-8"?>
<!-- Generator: Adobe Illustrator 24.1.1, SVG Export Plug-In . SVG Version: 6.00 Build 0)  -->
<svg version="1.1" id="Layer_1" xmlns="http://www.w3.org/2000/svg" xmlns:xlink="http://www.w3.org/1999/xlink" x="0px" y="0px"
	 viewBox="0 0 75 75" style="enable-background:new 0 0 75 75;" xml:space="preserve">
<g>
	<path d="M30.09,38.96H19.3c-1.34,0-2.43-0.21-3.27-0.65c-0.84-0.43-1.26-1.34-1.26-2.74l-0.17-15.32c0.11-0.74,0.44-1.23,0.98-1.48
		c0.54-0.25,1.08-0.32,1.64-0.22c0.55,0.1,1.04,0.35,1.46,0.74c0.42,0.39,0.57,0.83,0.46,1.32l-0.06,13.54h11.02l-0.11-13.9
		c0.11-0.74,0.44-1.24,0.98-1.51c0.54-0.27,1.07-0.36,1.61-0.28c0.54,0.08,1.01,0.31,1.44,0.68c0.42,0.37,0.57,0.8,0.46,1.29
		l0.11,33.65c0,0.78-0.22,1.32-0.66,1.63c-0.44,0.31-0.94,0.44-1.49,0.4c-0.56-0.04-1.05-0.22-1.49-0.52
		c-0.44-0.31-0.66-0.71-0.66-1.2L30.09,38.96z"/>
	<path d="M60.57,45.48c0,1.48-0.28,2.89-0.83,4.25s-1.3,2.53-2.24,3.54c-0.94,1-2.04,1.8-3.3,2.4c-1.26,0.59-2.58,0.89-3.96,0.89
		c-1.38,0-2.69-0.3-3.93-0.89c-1.24-0.59-2.33-1.39-3.27-2.4c-0.94-1-1.67-2.18-2.21-3.54c-0.54-1.35-0.8-2.77-0.8-4.25
		c0-1.72,0.35-3.35,1.06-4.89c0.71-1.54,1.67-2.82,2.9-3.85c-1.19-0.94-2.12-2.12-2.81-3.54c-0.69-1.42-1.03-3-1.03-4.77
		c0-1.48,0.26-2.89,0.77-4.25s1.23-2.53,2.15-3.54c0.92-1,1.99-1.8,3.21-2.4c1.22-0.59,2.53-0.89,3.9-0.89s2.68,0.3,3.9,0.89
		c1.22,0.6,2.3,1.4,3.21,2.4c0.92,1.01,1.64,2.18,2.15,3.54s0.78,2.77,0.78,4.25c0,1.72-0.34,3.29-1.03,4.71
		c-0.69,1.42-1.61,2.59-2.76,3.54c1.22,1.03,2.22,2.31,2.99,3.84C60.19,42.06,60.57,43.72,60.57,45.48z M44.33,28.5
		c0,0.86,0.15,1.64,0.46,2.34c0.31,0.7,0.73,1.3,1.26,1.81c0.54,0.51,1.15,0.9,1.84,1.17c0.69,0.27,1.44,0.4,2.24,0.4
		s1.55-0.13,2.24-0.4c0.69-0.27,1.3-0.66,1.84-1.17c0.54-0.51,0.96-1.12,1.26-1.81c0.31-0.7,0.46-1.48,0.46-2.34
		s-0.15-1.68-0.46-2.46c-0.31-0.78-0.73-1.46-1.26-2.03c-0.54-0.57-1.15-1.04-1.84-1.38c-0.69-0.35-1.43-0.52-2.24-0.52
		s-1.55,0.17-2.24,0.52c-0.69,0.35-1.3,0.81-1.84,1.38c-0.54,0.57-0.96,1.25-1.26,2.03C44.48,26.82,44.33,27.64,44.33,28.5z
		 M56.38,45.42c0-0.86-0.17-1.68-0.52-2.46c-0.34-0.78-0.79-1.47-1.35-2.06c-0.56-0.59-1.2-1.07-1.92-1.41
		c-0.73-0.35-1.49-0.52-2.3-0.52s-1.56,0.17-2.27,0.52s-1.34,0.82-1.89,1.41c-0.55,0.6-1,1.28-1.32,2.06
		c-0.33,0.78-0.49,1.6-0.49,2.46s0.16,1.68,0.49,2.46c0.33,0.78,0.77,1.46,1.32,2.03c0.55,0.58,1.19,1.04,1.89,1.38
		s1.46,0.52,2.27,0.52s1.57-0.17,2.3-0.52c0.73-0.35,1.37-0.81,1.92-1.38c0.55-0.57,1-1.25,1.35-2.03
		C56.21,47.1,56.38,46.28,56.38,45.42z"/>
</g>
</svg>
