<?xml version="1.0" encoding="utf-8"?>
<!-- Generator: Adobe Illustrator 24.1.1, SVG Export Plug-In . SVG Version: 6.00 Build 0)  -->
<svg version="1.1" id="Layer_1" xmlns="http://www.w3.org/2000/svg" xmlns:xlink="http://www.w3.org/1999/xlink" x="0px" y="0px"
	 viewBox="0 0 75 75" style="enable-background:new 0 0 75 75;" xml:space="preserve">
<g>
	<path d="M12.04,22.9c0-1.44,0.2-2.6,0.6-3.51c0.4-0.9,1.25-1.35,2.55-1.35h16.25c0.69,0.12,1.15,0.47,1.38,1.05
		c0.23,0.57,0.3,1.16,0.2,1.75c-0.1,0.6-0.33,1.12-0.69,1.57c-0.36,0.45-0.78,0.62-1.23,0.49l-14.58-0.25v8.31
		c2.41-0.62,4.59-0.75,6.54-0.4c1.95,0.35,3.63,1.06,5.02,2.12c1.4,1.07,2.5,2.43,3.3,4.09c0.8,1.66,1.26,3.5,1.38,5.51
		c0.15,2.67-0.02,5.01-0.52,7.04c-0.5,2.03-1.32,3.69-2.47,4.98c-1.15,1.29-2.59,2.18-4.33,2.68c-1.74,0.49-3.78,0.51-6.11,0.06
		c-2.49-0.45-4.44-1.61-5.86-3.48c-1.42-1.87-2.09-4.09-2.01-6.67c0-0.57,0.23-1.06,0.69-1.45c0.46-0.39,0.96-0.63,1.49-0.74
		c0.54-0.1,1.04-0.03,1.52,0.22c0.48,0.25,0.74,0.72,0.77,1.42c0.15,2.17,0.73,3.73,1.72,4.68c1,0.94,2.05,1.5,3.16,1.66
		c1.45,0.21,2.68,0.07,3.67-0.4c0.99-0.47,1.79-1.17,2.38-2.09c0.59-0.92,1-2.01,1.23-3.26c0.23-1.25,0.32-2.55,0.29-3.91
		c-0.08-1.39-0.41-2.69-1-3.88c-0.59-1.19-1.41-2.14-2.44-2.86c-1.03-0.72-2.26-1.14-3.67-1.26c-1.42-0.12-2.95,0.16-4.59,0.86
		c-0.27,0.12-0.62,0.22-1.06,0.28c-0.44,0.06-0.89,0.02-1.35-0.12c-0.46-0.14-0.88-0.45-1.26-0.92c-0.38-0.47-0.65-1.18-0.8-2.12
		L12.04,22.9z"/>
	<path d="M37.93,37.42c0-2.62,0.32-5.12,0.98-7.48c0.65-2.36,1.55-4.43,2.7-6.21c1.15-1.78,2.49-3.19,4.02-4.21
		c1.53-1.02,3.16-1.54,4.88-1.54c1.72,0,3.35,0.51,4.88,1.54c1.53,1.03,2.87,2.43,4.02,4.21c1.15,1.78,2.05,3.86,2.7,6.21
		c0.65,2.36,0.98,4.85,0.98,7.48c0,2.67-0.33,5.14-0.98,7.41c-0.65,2.28-1.55,4.27-2.7,5.97c-1.15,1.7-2.49,3.04-4.02,4
		c-1.53,0.96-3.16,1.45-4.88,1.45c-1.72,0-3.35-0.48-4.88-1.45c-1.53-0.96-2.87-2.3-4.02-4c-1.15-1.7-2.05-3.69-2.7-5.97
		C38.25,42.56,37.93,40.09,37.93,37.42z M42.17,37.79c0,1.89,0.22,3.66,0.66,5.32c0.44,1.66,1.04,3.12,1.81,4.37
		s1.66,2.24,2.67,2.95s2.1,1.08,3.24,1.08c1.15,0,2.22-0.36,3.21-1.08c0.99-0.72,1.87-1.7,2.61-2.95s1.33-2.71,1.75-4.37
		c0.42-1.66,0.63-3.43,0.63-5.32c0-1.89-0.22-3.72-0.66-5.51c-0.44-1.78-1.04-3.36-1.81-4.74c-0.77-1.37-1.66-2.48-2.67-3.32
		c-1.01-0.84-2.1-1.26-3.24-1.26c-1.15,0-2.22,0.42-3.21,1.26c-1,0.84-1.87,1.95-2.61,3.32c-0.75,1.37-1.33,2.95-1.75,4.74
		C42.38,34.07,42.17,35.9,42.17,37.79z"/>
</g>
</svg>
