<?xml version="1.0" encoding="utf-8"?>
<!-- Generator: Adobe Illustrator 24.1.1, SVG Export Plug-In . SVG Version: 6.00 Build 0)  -->
<svg version="1.1" id="Layer_1" xmlns="http://www.w3.org/2000/svg" xmlns:xlink="http://www.w3.org/1999/xlink" x="0px" y="0px"
	 viewBox="0 0 75 75" style="enable-background:new 0 0 75 75;" xml:space="preserve">
<g>
	<path d="M14.13,22.9c0-1.44,0.2-2.6,0.6-3.51c0.4-0.9,1.25-1.35,2.55-1.35h16.25c0.69,0.12,1.15,0.47,1.38,1.05
		c0.23,0.57,0.3,1.16,0.2,1.75c-0.1,0.6-0.33,1.12-0.69,1.57c-0.36,0.45-0.78,0.62-1.23,0.49l-14.58-0.25v8.31
		c2.41-0.62,4.59-0.75,6.54-0.4c1.95,0.35,3.63,1.06,5.02,2.12c1.4,1.07,2.5,2.43,3.3,4.09c0.8,1.66,1.26,3.5,1.38,5.51
		c0.15,2.67-0.02,5.01-0.52,7.04c-0.5,2.03-1.32,3.69-2.47,4.98c-1.15,1.29-2.59,2.18-4.33,2.68c-1.74,0.49-3.78,0.51-6.11,0.06
		c-2.49-0.45-4.44-1.61-5.86-3.48c-1.42-1.87-2.09-4.09-2.01-6.67c0-0.57,0.23-1.06,0.69-1.45c0.46-0.39,0.96-0.63,1.49-0.74
		c0.54-0.1,1.04-0.03,1.52,0.22c0.48,0.25,0.74,0.72,0.77,1.42c0.15,2.17,0.73,3.73,1.72,4.68c1,0.94,2.05,1.5,3.16,1.66
		c1.45,0.21,2.68,0.07,3.67-0.4c0.99-0.47,1.79-1.17,2.38-2.09c0.59-0.92,1-2.01,1.23-3.26c0.23-1.25,0.32-2.55,0.29-3.91
		c-0.08-1.39-0.41-2.69-1-3.88c-0.59-1.19-1.41-2.14-2.44-2.86c-1.03-0.72-2.26-1.14-3.67-1.26c-1.42-0.12-2.95,0.16-4.59,0.86
		c-0.27,0.12-0.62,0.22-1.06,0.28c-0.44,0.06-0.89,0.02-1.35-0.12c-0.46-0.14-0.88-0.45-1.26-0.92c-0.38-0.47-0.65-1.18-0.8-2.12
		L14.13,22.9z"/>
	<path d="M49.78,38.28c-0.34,0.04-0.66-0.14-0.95-0.55c-0.29-0.41-0.48-0.88-0.57-1.42c-0.1-0.53-0.05-1.04,0.14-1.51
		c0.19-0.47,0.57-0.75,1.15-0.83c0.57,0,1.25-0.11,2.04-0.34c0.78-0.23,1.53-0.6,2.24-1.14c0.71-0.53,1.28-1.23,1.72-2.09
		c0.44-0.86,0.6-1.95,0.49-3.26c-0.08-0.62-0.28-1.23-0.6-1.85c-0.33-0.62-0.78-1.16-1.35-1.63c-0.57-0.47-1.26-0.84-2.07-1.11
		c-0.8-0.27-1.68-0.36-2.64-0.28c-0.31,0.04-0.74,0.11-1.29,0.22c-0.55,0.1-1.14,0.34-1.75,0.71c-0.61,0.37-1.2,0.9-1.75,1.6
		c-0.56,0.7-0.97,1.64-1.23,2.83c-0.12,0.57-0.42,0.91-0.92,1.02c-0.5,0.1-1,0.06-1.49-0.12c-0.5-0.18-0.9-0.5-1.21-0.95
		c-0.31-0.45-0.34-0.98-0.11-1.6c0.46-1.6,1.08-2.91,1.87-3.94c0.78-1.02,1.64-1.85,2.55-2.46c0.92-0.62,1.84-1.06,2.76-1.32
		c0.92-0.27,1.74-0.42,2.47-0.46c1.22-0.08,2.46,0.05,3.7,0.4c1.24,0.35,2.38,0.9,3.42,1.66c1.03,0.76,1.89,1.72,2.58,2.89
		s1.11,2.55,1.26,4.15c0.19,2.09-0.03,3.86-0.66,5.29c-0.63,1.44-1.5,2.6-2.61,3.51c1.45,0.98,2.58,2.4,3.39,4.25
		s1.07,4.12,0.8,6.83c-0.19,2.09-0.69,3.86-1.49,5.29c-0.8,1.44-1.77,2.58-2.9,3.45c-1.13,0.86-2.35,1.47-3.67,1.82
		c-1.32,0.35-2.59,0.48-3.82,0.4c-0.73-0.04-1.55-0.2-2.47-0.46c-0.92-0.27-1.84-0.71-2.76-1.32c-0.92-0.62-1.77-1.44-2.55-2.46
		c-0.78-1.02-1.41-2.34-1.87-3.94c-0.23-0.62-0.19-1.15,0.11-1.6c0.31-0.45,0.71-0.77,1.21-0.95c0.5-0.19,1-0.22,1.49-0.09
		s0.8,0.45,0.92,0.98c0.27,1.19,0.68,2.13,1.23,2.83c0.55,0.7,1.14,1.23,1.75,1.6c0.61,0.37,1.2,0.61,1.75,0.71s0.99,0.17,1.29,0.21
		c0.96,0.08,1.88-0.02,2.76-0.31c0.88-0.29,1.65-0.74,2.32-1.35s1.22-1.35,1.67-2.21c0.44-0.86,0.72-1.8,0.83-2.83
		c0.12-1.31,0-2.48-0.34-3.51c-0.34-1.02-0.86-1.89-1.55-2.58c-0.69-0.7-1.49-1.23-2.41-1.6C51.73,38.46,50.77,38.28,49.78,38.28z"
		/>
</g>
</svg>
