<?xml version="1.0" encoding="utf-8"?>
<!-- Generator: Adobe Illustrator 24.1.1, SVG Export Plug-In . SVG Version: 6.00 Build 0)  -->
<svg version="1.1" id="Layer_1" xmlns="http://www.w3.org/2000/svg" xmlns:xlink="http://www.w3.org/1999/xlink" x="0px" y="0px"
	 viewBox="0 0 75 75" style="enable-background:new 0 0 75 75;" xml:space="preserve">
<g>
	<path d="M13.41,22.9c0-1.44,0.2-2.6,0.6-3.51c0.4-0.9,1.25-1.35,2.55-1.35h16.25c0.69,0.12,1.15,0.47,1.38,1.05
		c0.23,0.57,0.3,1.16,0.2,1.75c-0.1,0.6-0.33,1.12-0.69,1.57c-0.36,0.45-0.78,0.62-1.23,0.49l-14.58-0.25v8.31
		c2.41-0.62,4.59-0.75,6.54-0.4c1.95,0.35,3.63,1.06,5.02,2.12c1.4,1.07,2.5,2.43,3.3,4.09c0.8,1.66,1.26,3.5,1.38,5.51
		c0.15,2.67-0.02,5.01-0.52,7.04c-0.5,2.03-1.32,3.69-2.47,4.98c-1.15,1.29-2.59,2.18-4.33,2.68c-1.74,0.49-3.78,0.51-6.11,0.06
		c-2.49-0.45-4.44-1.61-5.86-3.48c-1.42-1.87-2.09-4.09-2.01-6.67c0-0.57,0.23-1.06,0.69-1.45c0.46-0.39,0.96-0.63,1.49-0.74
		c0.54-0.1,1.04-0.03,1.52,0.22c0.48,0.25,0.74,0.72,0.77,1.42c0.15,2.17,0.73,3.73,1.72,4.68c1,0.94,2.05,1.5,3.16,1.66
		c1.45,0.21,2.68,0.07,3.67-0.4c0.99-0.47,1.79-1.17,2.38-2.09c0.59-0.92,1-2.01,1.23-3.26c0.23-1.25,0.32-2.55,0.29-3.91
		c-0.08-1.39-0.41-2.69-1-3.88c-0.59-1.19-1.41-2.14-2.44-2.86c-1.03-0.72-2.26-1.14-3.67-1.26c-1.42-0.12-2.95,0.16-4.59,0.86
		C17.79,36,17.44,36.1,17,36.16c-0.44,0.06-0.89,0.02-1.35-0.12c-0.46-0.14-0.88-0.45-1.26-0.92c-0.38-0.47-0.65-1.18-0.8-2.12
		L13.41,22.9z"/>
	<path d="M58.59,18.22c0.46,0.16,0.78,0.53,0.98,1.11c0.19,0.57,0.25,1.16,0.17,1.75c-0.08,0.6-0.3,1.09-0.66,1.48
		c-0.36,0.39-0.89,0.5-1.58,0.34c-1.65-0.25-3.1-0.22-4.36,0.09s-2.36,0.8-3.3,1.48c-0.94,0.68-1.72,1.48-2.35,2.4
		s-1.16,1.89-1.58,2.89c-0.42,1.01-0.76,1.98-1,2.92c-0.25,0.94-0.43,1.76-0.55,2.46c0.77-0.62,1.67-1.11,2.73-1.48
		c1.05-0.37,2.08-0.62,3.07-0.74c1.53-0.12,2.98,0.06,4.33,0.55c1.36,0.49,2.57,1.24,3.64,2.25c1.07,1.01,1.93,2.21,2.58,3.6
		c0.65,1.39,1.01,2.91,1.09,4.55c0.08,1.64-0.12,3.22-0.6,4.74c-0.48,1.52-1.19,2.88-2.12,4.09c-0.94,1.21-2.06,2.21-3.36,2.98
		s-2.72,1.25-4.25,1.42c-2.41,0.25-4.44-0.13-6.08-1.14c-1.65-1-2.96-2.42-3.93-4.25c-0.98-1.82-1.62-3.95-1.92-6.37
		c-0.31-2.42-0.31-4.94,0-7.57c0.15-1.19,0.36-2.56,0.63-4.12c0.27-1.56,0.69-3.13,1.26-4.71c0.57-1.58,1.31-3.11,2.21-4.58
		c0.9-1.48,2.04-2.74,3.42-3.78s3-1.8,4.88-2.28C53.81,17.84,56.03,17.81,58.59,18.22z M43.72,45.66c0.08,0.98,0.34,1.93,0.8,2.83
		c0.46,0.9,1.03,1.67,1.72,2.31c0.69,0.64,1.46,1.13,2.33,1.48s1.75,0.46,2.67,0.34c0.92-0.08,1.78-0.36,2.58-0.83
		s1.5-1.08,2.09-1.82c0.59-0.74,1.04-1.58,1.35-2.52c0.31-0.94,0.44-1.91,0.4-2.89c-0.08-0.98-0.32-1.9-0.72-2.74
		c-0.4-0.84-0.94-1.57-1.61-2.18s-1.43-1.09-2.3-1.42c-0.86-0.33-1.75-0.45-2.67-0.37c-0.92,0.12-1.8,0.37-2.64,0.74
		c-0.84,0.37-1.58,0.88-2.21,1.54c-0.63,0.66-1.12,1.45-1.46,2.37C43.72,43.42,43.61,44.47,43.72,45.66z"/>
</g>
</svg>
