<?xml version="1.0" encoding="utf-8"?>
<!-- Generator: Adobe Illustrator 24.1.1, SVG Export Plug-In . SVG Version: 6.00 Build 0)  -->
<svg version="1.1" id="Layer_1" xmlns="http://www.w3.org/2000/svg" xmlns:xlink="http://www.w3.org/1999/xlink" x="0px" y="0px"
	 viewBox="0 0 75 75" style="enable-background:new 0 0 75 75;" xml:space="preserve">
<g>
	<path d="M45.65,18.22c0.46,0.16,0.78,0.53,0.98,1.11c0.19,0.57,0.25,1.16,0.17,1.75c-0.08,0.6-0.3,1.09-0.66,1.48
		c-0.36,0.39-0.89,0.5-1.58,0.34c-1.65-0.25-3.1-0.22-4.36,0.09s-2.36,0.8-3.3,1.48c-0.94,0.68-1.72,1.48-2.35,2.4
		s-1.16,1.89-1.58,2.89c-0.42,1.01-0.76,1.98-1,2.92c-0.25,0.94-0.43,1.76-0.55,2.46c0.77-0.62,1.67-1.11,2.73-1.48
		c1.05-0.37,2.08-0.62,3.07-0.74c1.53-0.12,2.98,0.06,4.33,0.55c1.36,0.49,2.57,1.24,3.64,2.25c1.07,1.01,1.93,2.21,2.58,3.6
		c0.65,1.39,1.01,2.91,1.09,4.55c0.08,1.64-0.12,3.22-0.6,4.74c-0.48,1.52-1.19,2.88-2.12,4.09c-0.94,1.21-2.06,2.21-3.36,2.98
		s-2.72,1.25-4.25,1.42c-2.41,0.25-4.44-0.13-6.08-1.14c-1.65-1-2.96-2.42-3.93-4.25c-0.98-1.82-1.62-3.95-1.92-6.37
		c-0.31-2.42-0.31-4.94,0-7.57c0.15-1.19,0.36-2.56,0.63-4.12c0.27-1.56,0.69-3.13,1.26-4.71c0.57-1.58,1.31-3.11,2.21-4.58
		c0.9-1.48,2.04-2.74,3.42-3.78c1.38-1.05,3-1.8,4.88-2.28C40.86,17.84,43.08,17.81,45.65,18.22z M30.78,45.66
		c0.08,0.98,0.34,1.93,0.8,2.83c0.46,0.9,1.03,1.67,1.72,2.31c0.69,0.64,1.46,1.13,2.33,1.48c0.86,0.35,1.75,0.46,2.67,0.34
		c0.92-0.08,1.78-0.36,2.58-0.83s1.5-1.08,2.09-1.82c0.59-0.74,1.04-1.58,1.35-2.52c0.31-0.94,0.44-1.91,0.4-2.89
		c-0.08-0.98-0.32-1.9-0.72-2.74c-0.4-0.84-0.94-1.57-1.61-2.18s-1.43-1.09-2.3-1.42c-0.86-0.33-1.75-0.45-2.67-0.37
		c-0.92,0.12-1.8,0.37-2.64,0.74c-0.84,0.37-1.58,0.88-2.21,1.54c-0.63,0.66-1.12,1.45-1.46,2.37
		C30.78,43.42,30.66,44.47,30.78,45.66z"/>
</g>
</svg>
