<?xml version="1.0" encoding="utf-8"?>
<!-- Generator: Adobe Illustrator 24.1.1, SVG Export Plug-In . SVG Version: 6.00 Build 0)  -->
<svg version="1.1" id="Layer_1" xmlns="http://www.w3.org/2000/svg" xmlns:xlink="http://www.w3.org/1999/xlink" x="0px" y="0px"
	 viewBox="0 0 75 75" style="enable-background:new 0 0 75 75;" xml:space="preserve">
<g>
	<path d="M32.41,18.22c0.46,0.16,0.78,0.53,0.98,1.11c0.19,0.57,0.25,1.16,0.17,1.75c-0.08,0.6-0.3,1.09-0.66,1.48
		c-0.36,0.39-0.89,0.5-1.58,0.34c-1.65-0.25-3.1-0.22-4.36,0.09c-1.26,0.31-2.36,0.8-3.3,1.48c-0.94,0.68-1.72,1.48-2.35,2.4
		s-1.16,1.89-1.58,2.89c-0.42,1.01-0.76,1.98-1,2.92c-0.25,0.94-0.43,1.76-0.55,2.46c0.77-0.62,1.67-1.11,2.73-1.48
		c1.05-0.37,2.08-0.62,3.07-0.74c1.53-0.12,2.98,0.06,4.33,0.55c1.36,0.49,2.57,1.24,3.65,2.25c1.07,1.01,1.93,2.21,2.58,3.6
		c0.65,1.39,1.01,2.91,1.09,4.55c0.08,1.64-0.12,3.22-0.6,4.74c-0.48,1.52-1.19,2.88-2.12,4.09c-0.94,1.21-2.06,2.21-3.36,2.98
		c-1.3,0.78-2.72,1.25-4.25,1.42c-2.41,0.25-4.44-0.13-6.08-1.14c-1.65-1-2.96-2.42-3.93-4.25c-0.98-1.82-1.62-3.95-1.92-6.37
		c-0.31-2.42-0.31-4.94,0-7.57c0.15-1.19,0.36-2.56,0.63-4.12c0.27-1.56,0.69-3.13,1.26-4.71c0.57-1.58,1.31-3.11,2.21-4.58
		c0.9-1.48,2.04-2.74,3.42-3.78c1.38-1.05,3-1.8,4.88-2.28C27.63,17.84,29.85,17.81,32.41,18.22z M17.55,45.66
		c0.08,0.98,0.34,1.93,0.8,2.83c0.46,0.9,1.03,1.67,1.72,2.31c0.69,0.64,1.46,1.13,2.33,1.48c0.86,0.35,1.75,0.46,2.67,0.34
		c0.92-0.08,1.78-0.36,2.58-0.83s1.5-1.08,2.1-1.82c0.59-0.74,1.04-1.58,1.35-2.52c0.31-0.94,0.44-1.91,0.4-2.89
		c-0.08-0.98-0.32-1.9-0.72-2.74s-0.94-1.57-1.61-2.18c-0.67-0.62-1.44-1.09-2.3-1.42c-0.86-0.33-1.75-0.45-2.67-0.37
		c-0.92,0.12-1.8,0.37-2.64,0.74c-0.84,0.37-1.58,0.88-2.21,1.54c-0.63,0.66-1.12,1.45-1.46,2.37
		C17.55,43.42,17.43,44.47,17.55,45.66z"/>
	<path d="M50.78,38.28c-0.34,0.04-0.66-0.14-0.95-0.55c-0.29-0.41-0.48-0.88-0.57-1.42c-0.1-0.53-0.05-1.04,0.14-1.51
		c0.19-0.47,0.57-0.75,1.15-0.83c0.57,0,1.25-0.11,2.04-0.34c0.78-0.23,1.53-0.6,2.24-1.14c0.71-0.53,1.28-1.23,1.72-2.09
		c0.44-0.86,0.6-1.95,0.49-3.26c-0.08-0.62-0.28-1.23-0.6-1.85c-0.33-0.62-0.78-1.16-1.35-1.63c-0.57-0.47-1.26-0.84-2.07-1.11
		c-0.8-0.27-1.68-0.36-2.64-0.28c-0.31,0.04-0.74,0.11-1.29,0.22c-0.55,0.1-1.14,0.34-1.75,0.71c-0.61,0.37-1.2,0.9-1.75,1.6
		c-0.56,0.7-0.97,1.64-1.23,2.83c-0.12,0.57-0.42,0.91-0.92,1.02c-0.5,0.1-1,0.06-1.49-0.12c-0.5-0.18-0.9-0.5-1.21-0.95
		c-0.31-0.45-0.34-0.98-0.11-1.6c0.46-1.6,1.08-2.91,1.87-3.94c0.78-1.02,1.64-1.85,2.55-2.46c0.92-0.62,1.84-1.06,2.76-1.32
		c0.92-0.27,1.74-0.42,2.47-0.46c1.22-0.08,2.46,0.05,3.7,0.4c1.24,0.35,2.38,0.9,3.42,1.66c1.03,0.76,1.89,1.72,2.58,2.89
		s1.11,2.55,1.26,4.15c0.19,2.09-0.03,3.86-0.66,5.29c-0.63,1.44-1.5,2.6-2.61,3.51c1.45,0.98,2.58,2.4,3.39,4.25
		s1.07,4.12,0.8,6.83c-0.19,2.09-0.69,3.86-1.49,5.29c-0.8,1.44-1.77,2.58-2.9,3.45c-1.13,0.86-2.35,1.47-3.67,1.82
		c-1.32,0.35-2.59,0.48-3.82,0.4c-0.73-0.04-1.55-0.2-2.47-0.46c-0.92-0.27-1.84-0.71-2.76-1.32c-0.92-0.62-1.77-1.44-2.55-2.46
		c-0.78-1.02-1.41-2.34-1.87-3.94c-0.23-0.62-0.19-1.15,0.11-1.6c0.31-0.45,0.71-0.77,1.21-0.95c0.5-0.19,1-0.22,1.49-0.09
		s0.8,0.45,0.92,0.98c0.27,1.19,0.68,2.13,1.23,2.83c0.55,0.7,1.14,1.23,1.75,1.6c0.61,0.37,1.2,0.61,1.75,0.71s0.99,0.17,1.29,0.21
		c0.96,0.08,1.88-0.02,2.76-0.31c0.88-0.29,1.65-0.74,2.32-1.35s1.22-1.35,1.67-2.21c0.44-0.86,0.72-1.8,0.83-2.83
		c0.12-1.31,0-2.48-0.34-3.51c-0.34-1.02-0.86-1.89-1.55-2.58c-0.69-0.7-1.49-1.23-2.41-1.6C52.74,38.46,51.78,38.28,50.78,38.28z"
		/>
</g>
</svg>
