<?xml version="1.0" encoding="utf-8"?>
<!-- Generator: Adobe Illustrator 24.1.1, SVG Export Plug-In . SVG Version: 6.00 Build 0)  -->
<svg version="1.1" id="Layer_1" xmlns="http://www.w3.org/2000/svg" xmlns:xlink="http://www.w3.org/1999/xlink" x="0px" y="0px"
	 viewBox="0 0 75 75" style="enable-background:new 0 0 75 75;" xml:space="preserve">
<g>
	<path d="M45.56,17.79c1.49-0.04,2.52,0.37,3.07,1.23s0.49,2.15-0.2,3.88l-12.8,32.05c-0.23,0.74-0.6,1.18-1.12,1.32
		s-1.02,0.11-1.52-0.09c-0.5-0.21-0.91-0.53-1.23-0.98c-0.33-0.45-0.41-0.9-0.26-1.35l12.29-31.32H28.11
		c-0.73,0-1.23-0.23-1.49-0.68c-0.27-0.45-0.38-0.95-0.34-1.51c0.04-0.55,0.2-1.07,0.49-1.54c0.29-0.47,0.66-0.71,1.12-0.71
		L45.56,17.79z"/>
</g>
</svg>
