<?xml version="1.0" encoding="utf-8"?>
<!-- Generator: Adobe Illustrator 24.1.1, SVG Export Plug-In . SVG Version: 6.00 Build 0)  -->
<svg version="1.1" id="Layer_1" xmlns="http://www.w3.org/2000/svg" xmlns:xlink="http://www.w3.org/1999/xlink" x="0px" y="0px"
	 viewBox="0 0 75 75" style="enable-background:new 0 0 75 75;" xml:space="preserve">
<g>
	<path d="M30.23,17.79c1.49-0.04,2.52,0.37,3.07,1.23c0.55,0.86,0.49,2.15-0.2,3.88L20.3,54.95c-0.23,0.74-0.6,1.18-1.12,1.32
		s-1.02,0.11-1.52-0.09c-0.5-0.21-0.91-0.53-1.23-0.98c-0.33-0.45-0.41-0.9-0.26-1.35l12.28-31.32H12.78
		c-0.73,0-1.23-0.23-1.49-0.68c-0.27-0.45-0.38-0.95-0.34-1.51c0.04-0.55,0.2-1.07,0.49-1.54c0.29-0.47,0.66-0.71,1.12-0.71
		L30.23,17.79z"/>
	<path d="M38.67,37.42c0-2.62,0.32-5.12,0.98-7.48c0.65-2.36,1.55-4.43,2.7-6.21c1.15-1.78,2.49-3.19,4.02-4.21
		c1.53-1.02,3.16-1.54,4.88-1.54c1.72,0,3.35,0.51,4.88,1.54c1.53,1.03,2.87,2.43,4.02,4.21c1.15,1.78,2.05,3.86,2.7,6.21
		c0.65,2.36,0.98,4.85,0.98,7.48c0,2.67-0.33,5.14-0.98,7.41c-0.65,2.28-1.55,4.27-2.7,5.97c-1.15,1.7-2.49,3.04-4.02,4
		c-1.53,0.96-3.16,1.45-4.88,1.45c-1.72,0-3.35-0.48-4.88-1.45c-1.53-0.96-2.87-2.3-4.02-4c-1.15-1.7-2.05-3.69-2.7-5.97
		C39,42.56,38.67,40.09,38.67,37.42z M42.92,37.79c0,1.89,0.22,3.66,0.66,5.32c0.44,1.66,1.04,3.12,1.81,4.37s1.66,2.24,2.67,2.95
		s2.1,1.08,3.24,1.08c1.15,0,2.22-0.36,3.21-1.08c0.99-0.72,1.87-1.7,2.61-2.95s1.33-2.71,1.75-4.37c0.42-1.66,0.63-3.43,0.63-5.32
		c0-1.89-0.22-3.72-0.66-5.51c-0.44-1.78-1.04-3.36-1.81-4.74c-0.77-1.37-1.66-2.48-2.67-3.32c-1.01-0.84-2.1-1.26-3.24-1.26
		c-1.15,0-2.22,0.42-3.21,1.26c-1,0.84-1.87,1.95-2.61,3.32c-0.75,1.37-1.33,2.95-1.75,4.74C43.13,34.07,42.92,35.9,42.92,37.79z"/>
</g>
</svg>
