<?xml version="1.0" encoding="utf-8"?>
<!-- Generator: Adobe Illustrator 24.1.1, SVG Export Plug-In . SVG Version: 6.00 Build 0)  -->
<svg version="1.1" id="Layer_1" xmlns="http://www.w3.org/2000/svg" xmlns:xlink="http://www.w3.org/1999/xlink" x="0px" y="0px"
	 viewBox="0 0 75 75" style="enable-background:new 0 0 75 75;" xml:space="preserve">
<g>
	<path d="M32.85,17.79c1.49-0.04,2.52,0.37,3.07,1.23c0.55,0.86,0.49,2.15-0.2,3.88l-12.8,32.05c-0.23,0.74-0.6,1.18-1.12,1.32
		s-1.02,0.11-1.52-0.09c-0.5-0.21-0.91-0.53-1.23-0.98c-0.33-0.45-0.41-0.9-0.26-1.35l12.28-31.32H15.39
		c-0.73,0-1.23-0.23-1.49-0.68c-0.27-0.45-0.38-0.95-0.34-1.51c0.04-0.55,0.2-1.07,0.49-1.54c0.29-0.47,0.66-0.71,1.12-0.71
		L32.85,17.79z"/>
	<path d="M56.73,20.13c0-0.49,0.22-0.89,0.66-1.2s0.93-0.48,1.46-0.52c0.54-0.04,1.02,0.09,1.46,0.4s0.66,0.85,0.66,1.63l0.06,34.21
		c-0.12,0.86-0.41,1.46-0.89,1.78c-0.48,0.33-0.98,0.46-1.49,0.4c-0.52-0.06-0.99-0.31-1.41-0.74c-0.42-0.43-0.65-0.97-0.69-1.63
		c0-1.52,0-2.83,0-3.94s-0.01-2.31-0.03-3.6c-0.02-1.29-0.03-2.49-0.03-3.6s-0.01-2.03-0.03-2.77s-0.03-1.13-0.03-1.17
		c-0.8,0.62-1.68,1.1-2.64,1.45s-1.95,0.52-2.98,0.52c-1.38,0-2.68-0.31-3.9-0.92s-2.29-1.44-3.21-2.46
		c-0.92-1.02-1.63-2.22-2.15-3.6c-0.52-1.37-0.78-2.8-0.78-4.28s0.26-2.89,0.78-4.25c0.52-1.35,1.23-2.54,2.15-3.57
		c0.92-1.02,1.99-1.83,3.21-2.43c1.22-0.59,2.53-0.89,3.9-0.89c1.11,0,2.15,0.18,3.13,0.55c0.97,0.37,1.88,0.9,2.73,1.6L56.73,20.13
		z M44.96,30.04c0,0.86,0.15,1.69,0.46,2.49s0.73,1.5,1.26,2.09c0.54,0.6,1.15,1.08,1.84,1.45c0.69,0.37,1.44,0.55,2.24,0.55
		c0.8,0,1.56-0.17,2.27-0.52c0.71-0.35,1.33-0.81,1.87-1.38c0.54-0.57,0.96-1.25,1.26-2.03c0.31-0.78,0.44-1.6,0.4-2.46
		c-0.08-2.21-0.66-3.88-1.75-4.98c-1.09-1.11-2.44-1.66-4.05-1.66c-0.8,0-1.55,0.17-2.24,0.52c-0.69,0.35-1.3,0.82-1.84,1.42
		c-0.54,0.6-0.96,1.28-1.26,2.06C45.11,28.35,44.96,29.17,44.96,30.04z"/>
</g>
</svg>
