<?xml version="1.0" encoding="utf-8"?>
<!-- Generator: Adobe Illustrator 24.1.1, SVG Export Plug-In . SVG Version: 6.00 Build 0)  -->
<svg version="1.1" id="Layer_1" xmlns="http://www.w3.org/2000/svg" xmlns:xlink="http://www.w3.org/1999/xlink" x="0px" y="0px"
	 viewBox="0 0 75 75" style="enable-background:new 0 0 75 75;" xml:space="preserve">
<g>
	<path d="M35.26,45.48c0,1.48-0.28,2.89-0.83,4.25c-0.56,1.35-1.3,2.53-2.24,3.54c-0.94,1-2.04,1.8-3.3,2.4
		c-1.26,0.59-2.58,0.89-3.96,0.89s-2.69-0.3-3.93-0.89c-1.24-0.59-2.33-1.39-3.27-2.4c-0.94-1-1.67-2.18-2.21-3.54
		c-0.54-1.35-0.8-2.77-0.8-4.25c0-1.72,0.35-3.35,1.06-4.89c0.71-1.54,1.67-2.82,2.9-3.85c-1.19-0.94-2.12-2.12-2.81-3.54
		c-0.69-1.42-1.03-3-1.03-4.77c0-1.48,0.26-2.89,0.77-4.25s1.23-2.53,2.15-3.54c0.92-1,1.99-1.8,3.21-2.4
		c1.22-0.59,2.53-0.89,3.9-0.89c1.38,0,2.68,0.3,3.9,0.89c1.22,0.6,2.3,1.4,3.21,2.4c0.92,1.01,1.64,2.18,2.15,3.54
		c0.52,1.35,0.78,2.77,0.78,4.25c0,1.72-0.34,3.29-1.03,4.71c-0.69,1.42-1.61,2.59-2.76,3.54c1.22,1.03,2.22,2.31,2.99,3.84
		C34.87,42.06,35.26,43.72,35.26,45.48z M19.01,28.5c0,0.86,0.15,1.64,0.46,2.34c0.31,0.7,0.73,1.3,1.26,1.81
		c0.54,0.51,1.15,0.9,1.84,1.17c0.69,0.27,1.44,0.4,2.24,0.4s1.55-0.13,2.24-0.4c0.69-0.27,1.3-0.66,1.84-1.17
		c0.54-0.51,0.96-1.12,1.26-1.81c0.31-0.7,0.46-1.48,0.46-2.34s-0.15-1.68-0.46-2.46c-0.31-0.78-0.73-1.46-1.26-2.03
		c-0.54-0.57-1.15-1.04-1.84-1.38c-0.69-0.35-1.44-0.52-2.24-0.52s-1.55,0.17-2.24,0.52c-0.69,0.35-1.3,0.81-1.84,1.38
		c-0.54,0.57-0.96,1.25-1.26,2.03C19.16,26.82,19.01,27.64,19.01,28.5z M31.07,45.42c0-0.86-0.17-1.68-0.52-2.46
		c-0.34-0.78-0.79-1.47-1.35-2.06c-0.56-0.59-1.2-1.07-1.92-1.41c-0.73-0.35-1.49-0.52-2.3-0.52c-0.8,0-1.56,0.17-2.27,0.52
		c-0.71,0.35-1.34,0.82-1.89,1.41c-0.56,0.6-1,1.28-1.32,2.06c-0.33,0.78-0.49,1.6-0.49,2.46s0.16,1.68,0.49,2.46
		c0.32,0.78,0.77,1.46,1.32,2.03c0.55,0.58,1.19,1.04,1.89,1.38c0.71,0.35,1.46,0.52,2.27,0.52c0.8,0,1.57-0.17,2.3-0.52
		c0.73-0.35,1.37-0.81,1.92-1.38c0.55-0.57,1-1.25,1.35-2.03C30.89,47.1,31.07,46.28,31.07,45.42z"/>
	<path d="M42.43,56.18c-0.69,0-1.21-0.21-1.55-0.62c-0.34-0.41-0.56-0.87-0.63-1.38c-0.08-0.51-0.03-1.01,0.14-1.51
		s0.45-0.82,0.83-0.98c1.88-1.97,3.69-3.98,5.45-6.03c1.76-2.05,3.32-4.09,4.68-6.12c1.36-2.03,2.44-4.03,3.24-6s1.19-3.83,1.15-5.6
		c-0.04-1.56-0.46-2.81-1.26-3.75c-0.8-0.94-1.8-1.52-2.98-1.72c-0.77-0.12-1.54-0.11-2.33,0.03c-0.79,0.14-1.53,0.44-2.24,0.89
		c-0.71,0.45-1.33,1.05-1.87,1.78c-0.54,0.74-0.92,1.62-1.15,2.65c-0.11,0.57-0.42,0.9-0.92,0.98c-0.5,0.08-1,0.02-1.49-0.18
		c-0.5-0.2-0.9-0.54-1.21-1.02c-0.31-0.47-0.34-1.02-0.12-1.63c0.54-1.6,1.28-2.96,2.24-4.09c0.96-1.13,2.01-2.02,3.16-2.68
		c1.15-0.66,2.36-1.09,3.65-1.29c1.28-0.2,2.52-0.18,3.7,0.06c1,0.21,1.95,0.58,2.87,1.14c0.92,0.55,1.72,1.26,2.41,2.12
		c0.69,0.86,1.21,1.89,1.58,3.08c0.36,1.19,0.51,2.5,0.43,3.94c-0.12,2.13-0.54,4.25-1.26,6.34s-1.66,4.13-2.78,6.12
		s-2.38,3.9-3.76,5.72c-1.38,1.83-2.79,3.56-4.25,5.2h10.96c0.69,0.12,1.16,0.45,1.41,0.98c0.25,0.53,0.32,1.07,0.23,1.6
		c-0.1,0.53-0.33,1.01-0.72,1.42s-0.84,0.55-1.38,0.43L42.43,56.18z"/>
</g>
</svg>
