<?xml version="1.0" encoding="utf-8"?>
<!-- Generator: Adobe Illustrator 24.1.1, SVG Export Plug-In . SVG Version: 6.00 Build 0)  -->
<svg version="1.1" id="Layer_1" xmlns="http://www.w3.org/2000/svg" xmlns:xlink="http://www.w3.org/1999/xlink" x="0px" y="0px"
	 viewBox="0 0 75 75" style="enable-background:new 0 0 75 75;" xml:space="preserve">
<g>
	<path d="M34.68,45.48c0,1.48-0.28,2.89-0.83,4.25c-0.56,1.35-1.3,2.53-2.24,3.54c-0.94,1-2.04,1.8-3.3,2.4
		c-1.26,0.59-2.58,0.89-3.96,0.89s-2.69-0.3-3.93-0.89c-1.24-0.59-2.33-1.39-3.27-2.4c-0.94-1-1.67-2.18-2.21-3.54
		c-0.54-1.35-0.8-2.77-0.8-4.25c0-1.72,0.35-3.35,1.06-4.89c0.71-1.54,1.67-2.82,2.9-3.85c-1.19-0.94-2.12-2.12-2.81-3.54
		c-0.69-1.42-1.03-3-1.03-4.77c0-1.48,0.26-2.89,0.77-4.25s1.23-2.53,2.15-3.54c0.92-1,1.99-1.8,3.21-2.4
		c1.22-0.59,2.53-0.89,3.9-0.89c1.38,0,2.68,0.3,3.9,0.89c1.22,0.6,2.3,1.4,3.21,2.4c0.92,1.01,1.64,2.18,2.15,3.54
		c0.52,1.35,0.78,2.77,0.78,4.25c0,1.72-0.34,3.29-1.03,4.71c-0.69,1.42-1.61,2.59-2.76,3.54c1.22,1.03,2.22,2.31,2.99,3.84
		C34.3,42.06,34.68,43.72,34.68,45.48z M18.44,28.5c0,0.86,0.15,1.64,0.46,2.34c0.31,0.7,0.73,1.3,1.26,1.81
		c0.54,0.51,1.15,0.9,1.84,1.17c0.69,0.27,1.44,0.4,2.24,0.4s1.55-0.13,2.24-0.4c0.69-0.27,1.3-0.66,1.84-1.17
		c0.54-0.51,0.96-1.12,1.26-1.81c0.31-0.7,0.46-1.48,0.46-2.34s-0.15-1.68-0.46-2.46c-0.31-0.78-0.73-1.46-1.26-2.03
		c-0.54-0.57-1.15-1.04-1.84-1.38c-0.69-0.35-1.44-0.52-2.24-0.52s-1.55,0.17-2.24,0.52c-0.69,0.35-1.3,0.81-1.84,1.38
		c-0.54,0.57-0.96,1.25-1.26,2.03C18.59,26.82,18.44,27.64,18.44,28.5z M30.49,45.42c0-0.86-0.17-1.68-0.52-2.46
		c-0.34-0.78-0.79-1.47-1.35-2.06c-0.56-0.59-1.2-1.07-1.92-1.41c-0.73-0.35-1.49-0.52-2.3-0.52c-0.8,0-1.56,0.17-2.27,0.52
		c-0.71,0.35-1.34,0.82-1.89,1.41c-0.56,0.6-1,1.28-1.32,2.06c-0.33,0.78-0.49,1.6-0.49,2.46s0.16,1.68,0.49,2.46
		c0.32,0.78,0.77,1.46,1.32,2.03c0.55,0.58,1.19,1.04,1.89,1.38c0.71,0.35,1.46,0.52,2.27,0.52c0.8,0,1.57-0.17,2.3-0.52
		c0.73-0.35,1.37-0.81,1.92-1.38c0.55-0.57,1-1.25,1.35-2.03C30.32,47.1,30.49,46.28,30.49,45.42z"/>
	<path d="M49.61,38.28c-0.34,0.04-0.66-0.14-0.95-0.55c-0.29-0.41-0.48-0.88-0.57-1.42c-0.1-0.53-0.05-1.04,0.14-1.51
		c0.19-0.47,0.57-0.75,1.15-0.83c0.57,0,1.25-0.11,2.04-0.34c0.78-0.23,1.53-0.6,2.24-1.14c0.71-0.53,1.28-1.23,1.72-2.09
		c0.44-0.86,0.6-1.95,0.49-3.26c-0.08-0.62-0.28-1.23-0.6-1.85c-0.33-0.62-0.78-1.16-1.35-1.63c-0.57-0.47-1.26-0.84-2.07-1.11
		c-0.8-0.27-1.68-0.36-2.64-0.28c-0.31,0.04-0.74,0.11-1.29,0.22c-0.55,0.1-1.14,0.34-1.75,0.71c-0.61,0.37-1.2,0.9-1.75,1.6
		c-0.56,0.7-0.97,1.64-1.23,2.83c-0.12,0.57-0.42,0.91-0.92,1.02c-0.5,0.1-1,0.06-1.49-0.12c-0.5-0.18-0.9-0.5-1.21-0.95
		c-0.31-0.45-0.34-0.98-0.11-1.6c0.46-1.6,1.08-2.91,1.87-3.94c0.78-1.02,1.64-1.85,2.55-2.46c0.92-0.62,1.84-1.06,2.76-1.32
		c0.92-0.27,1.74-0.42,2.47-0.46c1.22-0.08,2.46,0.05,3.7,0.4c1.24,0.35,2.38,0.9,3.42,1.66c1.03,0.76,1.89,1.72,2.58,2.89
		s1.11,2.55,1.26,4.15c0.19,2.09-0.03,3.86-0.66,5.29c-0.63,1.44-1.5,2.6-2.61,3.51c1.45,0.98,2.58,2.4,3.39,4.25
		s1.07,4.12,0.8,6.83c-0.19,2.09-0.69,3.86-1.49,5.29c-0.8,1.44-1.77,2.58-2.9,3.45c-1.13,0.86-2.35,1.47-3.67,1.82
		c-1.32,0.35-2.59,0.48-3.82,0.4c-0.73-0.04-1.55-0.2-2.47-0.46c-0.92-0.27-1.84-0.71-2.76-1.32c-0.92-0.62-1.77-1.44-2.55-2.46
		c-0.78-1.02-1.41-2.34-1.87-3.94c-0.23-0.62-0.19-1.15,0.11-1.6c0.31-0.45,0.71-0.77,1.21-0.95c0.5-0.19,1-0.22,1.49-0.09
		s0.8,0.45,0.92,0.98c0.27,1.19,0.68,2.13,1.23,2.83c0.55,0.7,1.14,1.23,1.75,1.6c0.61,0.37,1.2,0.61,1.75,0.71s0.99,0.17,1.29,0.21
		c0.96,0.08,1.88-0.02,2.76-0.31c0.88-0.29,1.65-0.74,2.32-1.35s1.22-1.35,1.67-2.21c0.44-0.86,0.72-1.8,0.83-2.83
		c0.12-1.31,0-2.48-0.34-3.51c-0.34-1.02-0.86-1.89-1.55-2.58c-0.69-0.7-1.49-1.23-2.41-1.6C51.56,38.46,50.6,38.28,49.61,38.28z"/>
</g>
</svg>
