<?xml version="1.0" encoding="utf-8"?>
<!-- Generator: Adobe Illustrator 24.1.1, SVG Export Plug-In . SVG Version: 6.00 Build 0)  -->
<svg version="1.1" id="Layer_1" xmlns="http://www.w3.org/2000/svg" xmlns:xlink="http://www.w3.org/1999/xlink" x="0px" y="0px"
	 viewBox="0 0 75 75" style="enable-background:new 0 0 75 75;" xml:space="preserve">
<g>
	<path d="M34.97,45.48c0,1.48-0.28,2.89-0.83,4.25c-0.56,1.35-1.3,2.53-2.24,3.54c-0.94,1-2.04,1.8-3.3,2.4
		c-1.26,0.59-2.58,0.89-3.96,0.89s-2.69-0.3-3.93-0.89c-1.24-0.59-2.33-1.39-3.27-2.4c-0.94-1-1.67-2.18-2.21-3.54
		c-0.54-1.35-0.8-2.77-0.8-4.25c0-1.72,0.35-3.35,1.06-4.89c0.71-1.54,1.67-2.82,2.9-3.85c-1.19-0.94-2.12-2.12-2.81-3.54
		c-0.69-1.42-1.03-3-1.03-4.77c0-1.48,0.26-2.89,0.77-4.25s1.23-2.53,2.15-3.54c0.92-1,1.99-1.8,3.21-2.4
		c1.22-0.59,2.53-0.89,3.9-0.89c1.38,0,2.68,0.3,3.9,0.89c1.22,0.6,2.3,1.4,3.21,2.4c0.92,1.01,1.64,2.18,2.15,3.54
		c0.52,1.35,0.78,2.77,0.78,4.25c0,1.72-0.34,3.29-1.03,4.71c-0.69,1.42-1.61,2.59-2.76,3.54c1.22,1.03,2.22,2.31,2.99,3.84
		C34.59,42.06,34.97,43.72,34.97,45.48z M18.72,28.5c0,0.86,0.15,1.64,0.46,2.34c0.31,0.7,0.73,1.3,1.26,1.81
		c0.54,0.51,1.15,0.9,1.84,1.17c0.69,0.27,1.44,0.4,2.24,0.4s1.55-0.13,2.24-0.4c0.69-0.27,1.3-0.66,1.84-1.17
		c0.54-0.51,0.96-1.12,1.26-1.81c0.31-0.7,0.46-1.48,0.46-2.34s-0.15-1.68-0.46-2.46c-0.31-0.78-0.73-1.46-1.26-2.03
		c-0.54-0.57-1.15-1.04-1.84-1.38c-0.69-0.35-1.44-0.52-2.24-0.52s-1.55,0.17-2.24,0.52c-0.69,0.35-1.3,0.81-1.84,1.38
		c-0.54,0.57-0.96,1.25-1.26,2.03C18.88,26.82,18.72,27.64,18.72,28.5z M30.78,45.42c0-0.86-0.17-1.68-0.52-2.46
		c-0.34-0.78-0.79-1.47-1.35-2.06c-0.56-0.59-1.2-1.07-1.92-1.41c-0.73-0.35-1.49-0.52-2.3-0.52c-0.8,0-1.56,0.17-2.27,0.52
		c-0.71,0.35-1.34,0.82-1.89,1.41c-0.56,0.6-1,1.28-1.32,2.06c-0.33,0.78-0.49,1.6-0.49,2.46s0.16,1.68,0.49,2.46
		c0.32,0.78,0.77,1.46,1.32,2.03c0.55,0.58,1.19,1.04,1.89,1.38c0.71,0.35,1.46,0.52,2.27,0.52c0.8,0,1.57-0.17,2.3-0.52
		c0.73-0.35,1.37-0.81,1.92-1.38c0.55-0.57,1-1.25,1.35-2.03C30.61,47.1,30.78,46.28,30.78,45.42z"/>
	<path d="M40.14,22.9c0-1.44,0.2-2.6,0.6-3.51c0.4-0.9,1.25-1.35,2.55-1.35h16.25c0.69,0.12,1.15,0.47,1.38,1.05
		c0.23,0.57,0.3,1.16,0.2,1.75c-0.1,0.6-0.33,1.12-0.69,1.57c-0.36,0.45-0.77,0.62-1.23,0.49l-14.58-0.25v8.31
		c2.41-0.62,4.59-0.75,6.54-0.4c1.95,0.35,3.63,1.06,5.02,2.12c1.4,1.07,2.5,2.43,3.3,4.09c0.8,1.66,1.26,3.5,1.38,5.51
		c0.15,2.67-0.02,5.01-0.52,7.04c-0.5,2.03-1.32,3.69-2.47,4.98c-1.15,1.29-2.59,2.18-4.33,2.68s-3.78,0.51-6.11,0.06
		c-2.49-0.45-4.44-1.61-5.86-3.48c-1.42-1.87-2.09-4.09-2.01-6.67c0-0.57,0.23-1.06,0.69-1.45c0.46-0.39,0.96-0.63,1.49-0.74
		c0.54-0.1,1.04-0.03,1.52,0.22s0.74,0.72,0.78,1.42c0.15,2.17,0.73,3.73,1.72,4.68c1,0.94,2.05,1.5,3.16,1.66
		c1.45,0.21,2.68,0.07,3.67-0.4s1.79-1.17,2.38-2.09c0.59-0.92,1-2.01,1.23-3.26c0.23-1.25,0.32-2.55,0.29-3.91
		c-0.08-1.39-0.41-2.69-1-3.88c-0.59-1.19-1.41-2.14-2.44-2.86c-1.03-0.72-2.26-1.14-3.67-1.26c-1.42-0.12-2.95,0.16-4.59,0.86
		c-0.27,0.12-0.62,0.22-1.06,0.28c-0.44,0.06-0.89,0.02-1.35-0.12c-0.46-0.14-0.88-0.45-1.26-0.92c-0.38-0.47-0.65-1.18-0.8-2.12
		L40.14,22.9z"/>
</g>
</svg>
