<?xml version="1.0" encoding="utf-8"?>
<!-- Generator: Adobe Illustrator 24.1.1, SVG Export Plug-In . SVG Version: 6.00 Build 0)  -->
<svg version="1.1" id="Layer_1" xmlns="http://www.w3.org/2000/svg" xmlns:xlink="http://www.w3.org/1999/xlink" x="0px" y="0px"
	 viewBox="0 0 75 75" style="enable-background:new 0 0 75 75;" xml:space="preserve">
<g>
	<path d="M33.96,45.48c0,1.48-0.28,2.89-0.83,4.25c-0.56,1.35-1.3,2.53-2.24,3.54c-0.94,1-2.04,1.8-3.3,2.4
		c-1.26,0.59-2.58,0.89-3.96,0.89s-2.69-0.3-3.93-0.89c-1.24-0.59-2.33-1.39-3.27-2.4c-0.94-1-1.67-2.18-2.21-3.54
		c-0.54-1.35-0.8-2.77-0.8-4.25c0-1.72,0.35-3.35,1.06-4.89c0.71-1.54,1.67-2.82,2.9-3.85c-1.19-0.94-2.12-2.12-2.81-3.54
		c-0.69-1.42-1.03-3-1.03-4.77c0-1.48,0.26-2.89,0.77-4.25s1.23-2.53,2.15-3.54c0.92-1,1.99-1.8,3.21-2.4
		c1.22-0.59,2.53-0.89,3.9-0.89c1.38,0,2.68,0.3,3.9,0.89c1.22,0.6,2.3,1.4,3.21,2.4c0.92,1.01,1.64,2.18,2.15,3.54
		c0.52,1.35,0.78,2.77,0.78,4.25c0,1.72-0.34,3.29-1.03,4.71c-0.69,1.42-1.61,2.59-2.76,3.54c1.22,1.03,2.22,2.31,2.99,3.84
		C33.58,42.06,33.96,43.72,33.96,45.48z M17.72,28.5c0,0.86,0.15,1.64,0.46,2.34c0.31,0.7,0.73,1.3,1.26,1.81
		c0.54,0.51,1.15,0.9,1.84,1.17c0.69,0.27,1.44,0.4,2.24,0.4s1.55-0.13,2.24-0.4c0.69-0.27,1.3-0.66,1.84-1.17
		c0.54-0.51,0.96-1.12,1.26-1.81c0.31-0.7,0.46-1.48,0.46-2.34s-0.15-1.68-0.46-2.46c-0.31-0.78-0.73-1.46-1.26-2.03
		c-0.54-0.57-1.15-1.04-1.84-1.38c-0.69-0.35-1.44-0.52-2.24-0.52s-1.55,0.17-2.24,0.52c-0.69,0.35-1.3,0.81-1.84,1.38
		c-0.54,0.57-0.96,1.25-1.26,2.03C17.87,26.82,17.72,27.64,17.72,28.5z M29.77,45.42c0-0.86-0.17-1.68-0.52-2.46
		c-0.34-0.78-0.79-1.47-1.35-2.06c-0.56-0.59-1.2-1.07-1.92-1.41c-0.73-0.35-1.49-0.52-2.3-0.52c-0.8,0-1.56,0.17-2.27,0.52
		c-0.71,0.35-1.34,0.82-1.89,1.41c-0.56,0.6-1,1.28-1.32,2.06c-0.33,0.78-0.49,1.6-0.49,2.46s0.16,1.68,0.49,2.46
		c0.32,0.78,0.77,1.46,1.32,2.03c0.55,0.58,1.19,1.04,1.89,1.38c0.71,0.35,1.46,0.52,2.27,0.52c0.8,0,1.57-0.17,2.3-0.52
		c0.73-0.35,1.37-0.81,1.92-1.38c0.55-0.57,1-1.25,1.35-2.03C29.6,47.1,29.77,46.28,29.77,45.42z"/>
	<path d="M58.42,18.22c0.46,0.16,0.78,0.53,0.97,1.11c0.19,0.57,0.25,1.16,0.17,1.75c-0.08,0.6-0.3,1.09-0.66,1.48
		c-0.36,0.39-0.89,0.5-1.58,0.34c-1.65-0.25-3.1-0.22-4.36,0.09c-1.26,0.31-2.36,0.8-3.3,1.48s-1.72,1.48-2.35,2.4
		c-0.63,0.92-1.16,1.89-1.58,2.89c-0.42,1.01-0.76,1.98-1,2.92c-0.25,0.94-0.43,1.76-0.55,2.46c0.77-0.62,1.67-1.11,2.73-1.48
		c1.05-0.37,2.07-0.62,3.07-0.74c1.53-0.12,2.97,0.06,4.33,0.55c1.36,0.49,2.57,1.24,3.64,2.25c1.07,1.01,1.93,2.21,2.58,3.6
		c0.65,1.39,1.01,2.91,1.09,4.55c0.08,1.64-0.12,3.22-0.6,4.74c-0.48,1.52-1.19,2.88-2.13,4.09c-0.94,1.21-2.06,2.21-3.36,2.98
		s-2.72,1.25-4.25,1.42c-2.41,0.25-4.44-0.13-6.09-1.14c-1.64-1-2.96-2.42-3.93-4.25c-0.98-1.82-1.62-3.95-1.92-6.37
		c-0.31-2.42-0.31-4.94,0-7.57c0.15-1.19,0.36-2.56,0.63-4.12c0.27-1.56,0.69-3.13,1.26-4.71c0.57-1.58,1.31-3.11,2.21-4.58
		c0.9-1.48,2.04-2.74,3.42-3.78c1.38-1.05,3-1.8,4.88-2.28C53.64,17.84,55.86,17.81,58.42,18.22z M43.55,45.66
		c0.08,0.98,0.34,1.93,0.8,2.83c0.46,0.9,1.03,1.67,1.72,2.31c0.69,0.64,1.46,1.13,2.33,1.48s1.75,0.46,2.67,0.34
		c0.92-0.08,1.78-0.36,2.58-0.83c0.8-0.47,1.5-1.08,2.1-1.82c0.59-0.74,1.04-1.58,1.35-2.52c0.3-0.94,0.44-1.91,0.4-2.89
		c-0.08-0.98-0.31-1.9-0.72-2.74s-0.94-1.57-1.61-2.18s-1.44-1.09-2.3-1.42c-0.86-0.33-1.75-0.45-2.67-0.37
		c-0.92,0.12-1.8,0.37-2.64,0.74c-0.84,0.37-1.58,0.88-2.21,1.54c-0.63,0.66-1.12,1.45-1.46,2.37
		C43.55,43.42,43.44,44.47,43.55,45.66z"/>
</g>
</svg>
