<?xml version="1.0" encoding="utf-8"?>
<!-- Generator: Adobe Illustrator 24.1.1, SVG Export Plug-In . SVG Version: 6.00 Build 0)  -->
<svg version="1.1" id="Layer_1" xmlns="http://www.w3.org/2000/svg" xmlns:xlink="http://www.w3.org/1999/xlink" x="0px" y="0px"
	 viewBox="0 0 75 75" style="enable-background:new 0 0 75 75;" xml:space="preserve">
<g>
	<path d="M37.78,20.13c0-0.49,0.22-0.89,0.66-1.2c0.44-0.31,0.93-0.48,1.46-0.52c0.54-0.04,1.02,0.09,1.46,0.4s0.66,0.85,0.66,1.63
		l0.06,34.21c-0.12,0.86-0.41,1.46-0.89,1.78c-0.48,0.33-0.98,0.46-1.49,0.4c-0.52-0.06-0.99-0.31-1.41-0.74
		c-0.42-0.43-0.65-0.97-0.69-1.63c0-1.52,0-2.83,0-3.94s-0.01-2.31-0.03-3.6c-0.02-1.29-0.03-2.49-0.03-3.6s-0.01-2.03-0.03-2.77
		c-0.02-0.74-0.03-1.13-0.03-1.17c-0.8,0.62-1.68,1.1-2.64,1.45c-0.96,0.35-1.95,0.52-2.98,0.52c-1.38,0-2.68-0.31-3.9-0.92
		c-1.23-0.62-2.3-1.44-3.21-2.46c-0.92-1.02-1.64-2.22-2.15-3.6c-0.52-1.37-0.77-2.8-0.77-4.28s0.26-2.89,0.77-4.25
		s1.23-2.54,2.15-3.57c0.92-1.02,1.99-1.83,3.21-2.43c1.22-0.59,2.53-0.89,3.9-0.89c1.11,0,2.15,0.18,3.13,0.55
		c0.98,0.37,1.88,0.9,2.73,1.6L37.78,20.13z M26.01,30.04c0,0.86,0.15,1.69,0.46,2.49c0.31,0.8,0.73,1.5,1.26,2.09
		c0.54,0.6,1.15,1.08,1.84,1.45s1.44,0.55,2.24,0.55s1.56-0.17,2.27-0.52c0.71-0.35,1.33-0.81,1.87-1.38
		c0.54-0.57,0.96-1.25,1.26-2.03c0.31-0.78,0.44-1.6,0.4-2.46c-0.08-2.21-0.66-3.88-1.75-4.98s-2.44-1.66-4.05-1.66
		c-0.8,0-1.55,0.17-2.24,0.52c-0.69,0.35-1.3,0.82-1.84,1.42c-0.54,0.6-0.96,1.28-1.26,2.06C26.17,28.35,26.01,29.17,26.01,30.04z"
		/>
	<path d="M47.94,20.25c0.11-0.74,0.42-1.25,0.92-1.54c0.5-0.29,1.01-0.41,1.55-0.37c0.54,0.04,1.01,0.25,1.44,0.62
		c0.42,0.37,0.63,0.82,0.63,1.35l0.11,33.78c0,0.78-0.22,1.32-0.66,1.63c-0.44,0.31-0.93,0.44-1.46,0.4
		c-0.54-0.04-1.02-0.22-1.46-0.52c-0.44-0.31-0.66-0.71-0.66-1.2L47.94,20.25z"/>
</g>
</svg>
