<?xml version="1.0" encoding="utf-8"?>
<!-- Generator: Adobe Illustrator 24.1.1, SVG Export Plug-In . SVG Version: 6.00 Build 0)  -->
<svg version="1.1" id="Layer_1" xmlns="http://www.w3.org/2000/svg" xmlns:xlink="http://www.w3.org/1999/xlink" x="0px" y="0px"
	 viewBox="0 0 75 75" style="enable-background:new 0 0 75 75;" xml:space="preserve">
<g>
	<path d="M29.08,20.13c0-0.49,0.22-0.89,0.66-1.2c0.44-0.31,0.93-0.48,1.46-0.52c0.54-0.04,1.02,0.09,1.46,0.4
		c0.44,0.31,0.66,0.85,0.66,1.63l0.06,34.21c-0.11,0.86-0.41,1.46-0.89,1.78c-0.48,0.33-0.98,0.46-1.49,0.4
		c-0.52-0.06-0.99-0.31-1.41-0.74c-0.42-0.43-0.65-0.97-0.69-1.63c0-1.52,0-2.83,0-3.94s-0.01-2.31-0.03-3.6
		c-0.02-1.29-0.03-2.49-0.03-3.6s-0.01-2.03-0.03-2.77c-0.02-0.74-0.03-1.13-0.03-1.17c-0.8,0.62-1.68,1.1-2.64,1.45
		c-0.96,0.35-1.95,0.52-2.98,0.52c-1.38,0-2.68-0.31-3.9-0.92c-1.23-0.62-2.3-1.44-3.21-2.46c-0.92-1.02-1.64-2.22-2.15-3.6
		c-0.52-1.37-0.77-2.8-0.77-4.28s0.26-2.89,0.77-4.25s1.23-2.54,2.15-3.57c0.92-1.02,1.99-1.83,3.21-2.43
		c1.22-0.59,2.53-0.89,3.9-0.89c1.11,0,2.15,0.18,3.13,0.55c0.98,0.37,1.88,0.9,2.73,1.6L29.08,20.13z M17.32,30.04
		c0,0.86,0.15,1.69,0.46,2.49c0.31,0.8,0.73,1.5,1.26,2.09c0.54,0.6,1.15,1.08,1.84,1.45s1.44,0.55,2.24,0.55s1.56-0.17,2.27-0.52
		c0.71-0.35,1.33-0.81,1.87-1.38c0.54-0.57,0.96-1.25,1.26-2.03c0.31-0.78,0.44-1.6,0.4-2.46c-0.08-2.21-0.66-3.88-1.75-4.98
		s-2.44-1.66-4.05-1.66c-0.8,0-1.55,0.17-2.24,0.52c-0.69,0.35-1.3,0.82-1.84,1.42c-0.54,0.6-0.96,1.28-1.26,2.06
		C17.47,28.35,17.32,29.17,17.32,30.04z"/>
	<path d="M58.36,18.22c0.46,0.16,0.78,0.53,0.98,1.11c0.19,0.57,0.25,1.16,0.17,1.75c-0.08,0.6-0.3,1.09-0.66,1.48
		c-0.37,0.39-0.89,0.5-1.58,0.34c-1.65-0.25-3.1-0.22-4.36,0.09c-1.26,0.31-2.36,0.8-3.3,1.48c-0.94,0.68-1.72,1.48-2.35,2.4
		c-0.63,0.92-1.16,1.89-1.58,2.89c-0.42,1.01-0.76,1.98-1,2.92c-0.25,0.94-0.43,1.76-0.54,2.46c0.77-0.62,1.67-1.11,2.73-1.48
		s2.08-0.62,3.07-0.74c1.53-0.12,2.98,0.06,4.34,0.55c1.36,0.49,2.57,1.24,3.64,2.25c1.07,1.01,1.93,2.21,2.58,3.6
		c0.65,1.39,1.01,2.91,1.09,4.55c0.08,1.64-0.13,3.22-0.6,4.74c-0.48,1.52-1.19,2.88-2.12,4.09c-0.94,1.21-2.06,2.21-3.36,2.98
		s-2.72,1.25-4.25,1.42c-2.41,0.25-4.44-0.13-6.08-1.14c-1.65-1-2.96-2.42-3.93-4.25c-0.98-1.82-1.62-3.95-1.92-6.37
		c-0.31-2.42-0.31-4.94,0-7.57c0.15-1.19,0.36-2.56,0.63-4.12c0.27-1.56,0.69-3.13,1.26-4.71c0.57-1.58,1.31-3.11,2.21-4.58
		c0.9-1.48,2.04-2.74,3.41-3.78c1.38-1.05,3-1.8,4.88-2.28C53.58,17.84,55.8,17.81,58.36,18.22z M43.49,45.66
		c0.08,0.98,0.34,1.93,0.8,2.83c0.46,0.9,1.03,1.67,1.72,2.31s1.46,1.13,2.32,1.48s1.75,0.46,2.67,0.34
		c0.92-0.08,1.78-0.36,2.58-0.83c0.8-0.47,1.5-1.08,2.09-1.82s1.04-1.58,1.35-2.52c0.31-0.94,0.44-1.91,0.4-2.89
		c-0.08-0.98-0.32-1.9-0.72-2.74c-0.4-0.84-0.94-1.57-1.61-2.18s-1.43-1.09-2.29-1.42c-0.86-0.33-1.75-0.45-2.67-0.37
		c-0.92,0.12-1.8,0.37-2.64,0.74s-1.58,0.88-2.21,1.54c-0.63,0.66-1.12,1.45-1.46,2.37C43.49,43.42,43.38,44.47,43.49,45.66z"/>
</g>
</svg>
