<?xml version="1.0" encoding="utf-8"?>
<!-- Generator: Adobe Illustrator 24.1.1, SVG Export Plug-In . SVG Version: 6.00 Build 0)  -->
<svg version="1.1" id="Layer_1" xmlns="http://www.w3.org/2000/svg" xmlns:xlink="http://www.w3.org/1999/xlink" x="0px" y="0px"
	 viewBox="0 0 75 75" style="enable-background:new 0 0 75 75;" xml:space="preserve">
<g>
	<path d="M30.26,20.13c0-0.49,0.22-0.89,0.66-1.2c0.44-0.31,0.93-0.48,1.46-0.52c0.54-0.04,1.02,0.09,1.46,0.4
		c0.44,0.31,0.66,0.85,0.66,1.63l0.06,34.21c-0.11,0.86-0.41,1.46-0.89,1.78c-0.48,0.33-0.98,0.46-1.49,0.4
		c-0.52-0.06-0.99-0.31-1.41-0.74c-0.42-0.43-0.65-0.97-0.69-1.63c0-1.52,0-2.83,0-3.94s-0.01-2.31-0.03-3.6
		c-0.02-1.29-0.03-2.49-0.03-3.6s-0.01-2.03-0.03-2.77c-0.02-0.74-0.03-1.13-0.03-1.17c-0.8,0.62-1.68,1.1-2.64,1.45
		c-0.96,0.35-1.95,0.52-2.98,0.52c-1.38,0-2.68-0.31-3.9-0.92c-1.23-0.62-2.3-1.44-3.21-2.46c-0.92-1.02-1.64-2.22-2.15-3.6
		c-0.52-1.37-0.77-2.8-0.77-4.28s0.26-2.89,0.77-4.25s1.23-2.54,2.15-3.57c0.92-1.02,1.99-1.83,3.21-2.43
		c1.22-0.59,2.53-0.89,3.9-0.89c1.11,0,2.15,0.18,3.13,0.55c0.98,0.37,1.88,0.9,2.73,1.6L30.26,20.13z M18.49,30.04
		c0,0.86,0.15,1.69,0.46,2.49c0.31,0.8,0.73,1.5,1.26,2.09c0.54,0.6,1.15,1.08,1.84,1.45s1.44,0.55,2.24,0.55s1.56-0.17,2.27-0.52
		c0.71-0.35,1.33-0.81,1.87-1.38c0.54-0.57,0.96-1.25,1.26-2.03c0.31-0.78,0.44-1.6,0.4-2.46c-0.08-2.21-0.66-3.88-1.75-4.98
		s-2.44-1.66-4.05-1.66c-0.8,0-1.55,0.17-2.24,0.52c-0.69,0.35-1.3,0.82-1.84,1.42c-0.54,0.6-0.96,1.28-1.26,2.06
		C18.65,28.35,18.49,29.17,18.49,30.04z"/>
	<path d="M60.63,45.48c0,1.48-0.28,2.89-0.83,4.25s-1.3,2.53-2.24,3.54c-0.94,1-2.04,1.8-3.3,2.4c-1.26,0.59-2.58,0.89-3.96,0.89
		c-1.38,0-2.69-0.3-3.93-0.89c-1.24-0.59-2.33-1.39-3.27-2.4c-0.94-1-1.68-2.18-2.21-3.54s-0.8-2.77-0.8-4.25
		c0-1.72,0.35-3.35,1.06-4.89c0.71-1.54,1.67-2.82,2.9-3.85c-1.19-0.94-2.13-2.12-2.81-3.54c-0.69-1.42-1.03-3-1.03-4.77
		c0-1.48,0.26-2.89,0.77-4.25c0.52-1.35,1.23-2.53,2.15-3.54c0.92-1,1.99-1.8,3.21-2.4c1.22-0.59,2.53-0.89,3.9-0.89
		c1.38,0,2.68,0.3,3.9,0.89c1.22,0.6,2.29,1.4,3.21,2.4c0.92,1.01,1.63,2.18,2.15,3.54c0.52,1.35,0.78,2.77,0.78,4.25
		c0,1.72-0.35,3.29-1.03,4.71c-0.69,1.42-1.61,2.59-2.76,3.54c1.22,1.03,2.22,2.31,2.98,3.84C60.25,42.06,60.63,43.72,60.63,45.48z
		 M44.38,28.5c0,0.86,0.15,1.64,0.46,2.34c0.31,0.7,0.73,1.3,1.26,1.81c0.54,0.51,1.15,0.9,1.84,1.17c0.69,0.27,1.44,0.4,2.24,0.4
		c0.8,0,1.55-0.13,2.24-0.4c0.69-0.27,1.3-0.66,1.84-1.17c0.54-0.51,0.96-1.12,1.26-1.81c0.31-0.7,0.46-1.48,0.46-2.34
		s-0.15-1.68-0.46-2.46c-0.31-0.78-0.73-1.46-1.26-2.03c-0.54-0.57-1.15-1.04-1.84-1.38c-0.69-0.35-1.44-0.52-2.24-0.52
		c-0.8,0-1.55,0.17-2.24,0.52c-0.69,0.35-1.3,0.81-1.84,1.38c-0.54,0.57-0.96,1.25-1.26,2.03C44.54,26.82,44.38,27.64,44.38,28.5z
		 M56.44,45.42c0-0.86-0.17-1.68-0.52-2.46c-0.34-0.78-0.79-1.47-1.35-2.06c-0.55-0.59-1.2-1.07-1.92-1.41
		c-0.73-0.35-1.49-0.52-2.3-0.52c-0.8,0-1.56,0.17-2.27,0.52c-0.71,0.35-1.34,0.82-1.89,1.41c-0.55,0.6-1,1.28-1.32,2.06
		c-0.33,0.78-0.49,1.6-0.49,2.46s0.16,1.68,0.49,2.46c0.32,0.78,0.77,1.46,1.32,2.03c0.55,0.58,1.19,1.04,1.89,1.38
		c0.71,0.35,1.46,0.52,2.27,0.52c0.8,0,1.57-0.17,2.3-0.52c0.73-0.35,1.37-0.81,1.92-1.38c0.55-0.57,1.01-1.25,1.35-2.03
		C56.27,47.1,56.44,46.28,56.44,45.42z"/>
</g>
</svg>
